<mxfile host="app.diagrams.net" agent="Mozilla/5.0 (Windows NT 10.0; Win64; x64) AppleWebKit/537.36 (KHTML, like Gecko) Chrome/130.0.0.0 Safari/537.36" version="24.8.4">
  <diagram name="Сторінка-1" id="SxpDc5ALlWD0Bm3FzIyv">
    <mxGraphModel dx="1587" dy="1695" grid="0" gridSize="10" guides="1" tooltips="1" connect="1" arrows="1" fold="1" page="0" pageScale="1" pageWidth="827" pageHeight="1169" math="0" shadow="0">
      <root>
        <mxCell id="0" />
        <mxCell id="1" parent="0" />
        <mxCell id="vlrHRavP4iwQakqAyyEH-5" style="edgeStyle=orthogonalEdgeStyle;rounded=0;orthogonalLoop=1;jettySize=auto;html=1;exitX=0.5;exitY=1;exitDx=0;exitDy=0;" parent="1" source="vlrHRavP4iwQakqAyyEH-1" target="vlrHRavP4iwQakqAyyEH-2" edge="1">
          <mxGeometry relative="1" as="geometry" />
        </mxCell>
        <mxCell id="vlrHRavP4iwQakqAyyEH-1" value="START" style="ellipse;whiteSpace=wrap;html=1;" parent="1" vertex="1">
          <mxGeometry x="613" y="-275" width="120" height="80" as="geometry" />
        </mxCell>
        <mxCell id="vlrHRavP4iwQakqAyyEH-4" style="edgeStyle=orthogonalEdgeStyle;rounded=0;orthogonalLoop=1;jettySize=auto;html=1;exitX=0.5;exitY=1;exitDx=0;exitDy=0;entryX=0.5;entryY=0;entryDx=0;entryDy=0;" parent="1" source="vlrHRavP4iwQakqAyyEH-2" target="vlrHRavP4iwQakqAyyEH-3" edge="1">
          <mxGeometry relative="1" as="geometry" />
        </mxCell>
        <mxCell id="vlrHRavP4iwQakqAyyEH-2" value="userInterface()" style="shape=process;whiteSpace=wrap;html=1;backgroundOutline=1;" parent="1" vertex="1">
          <mxGeometry x="613" y="-170" width="120" height="60" as="geometry" />
        </mxCell>
        <mxCell id="vlrHRavP4iwQakqAyyEH-3" value="END" style="ellipse;whiteSpace=wrap;html=1;" parent="1" vertex="1">
          <mxGeometry x="613" y="-74" width="120" height="80" as="geometry" />
        </mxCell>
        <mxCell id="vlrHRavP4iwQakqAyyEH-9" style="edgeStyle=orthogonalEdgeStyle;rounded=0;orthogonalLoop=1;jettySize=auto;html=1;exitX=0.5;exitY=1;exitDx=0;exitDy=0;entryX=0.5;entryY=0;entryDx=0;entryDy=0;" parent="1" source="vlrHRavP4iwQakqAyyEH-6" target="vlrHRavP4iwQakqAyyEH-8" edge="1">
          <mxGeometry relative="1" as="geometry" />
        </mxCell>
        <mxCell id="vlrHRavP4iwQakqAyyEH-6" value="userInterface()" style="ellipse;whiteSpace=wrap;html=1;" parent="1" vertex="1">
          <mxGeometry x="779" y="-275" width="120" height="80" as="geometry" />
        </mxCell>
        <mxCell id="vlrHRavP4iwQakqAyyEH-11" style="edgeStyle=orthogonalEdgeStyle;rounded=0;orthogonalLoop=1;jettySize=auto;html=1;exitX=0.5;exitY=1;exitDx=0;exitDy=0;entryX=0.5;entryY=0;entryDx=0;entryDy=0;" parent="1" source="vlrHRavP4iwQakqAyyEH-8" target="vlrHRavP4iwQakqAyyEH-10" edge="1">
          <mxGeometry relative="1" as="geometry" />
        </mxCell>
        <mxCell id="vlrHRavP4iwQakqAyyEH-8" value="userInterface()" style="shape=process;whiteSpace=wrap;html=1;backgroundOutline=1;" parent="1" vertex="1">
          <mxGeometry x="779" y="-168" width="120" height="60" as="geometry" />
        </mxCell>
        <mxCell id="vlrHRavP4iwQakqAyyEH-10" value="return;" style="ellipse;whiteSpace=wrap;html=1;" parent="1" vertex="1">
          <mxGeometry x="779" y="-81" width="120" height="80" as="geometry" />
        </mxCell>
        <mxCell id="vlrHRavP4iwQakqAyyEH-30" style="edgeStyle=orthogonalEdgeStyle;rounded=0;orthogonalLoop=1;jettySize=auto;html=1;" parent="1" source="vlrHRavP4iwQakqAyyEH-12" target="vlrHRavP4iwQakqAyyEH-24" edge="1">
          <mxGeometry relative="1" as="geometry" />
        </mxCell>
        <mxCell id="vlrHRavP4iwQakqAyyEH-12" value="userInterface(boolean errror)" style="ellipse;whiteSpace=wrap;html=1;" parent="1" vertex="1">
          <mxGeometry x="1049.5" y="-268" width="195" height="80" as="geometry" />
        </mxCell>
        <mxCell id="vlrHRavP4iwQakqAyyEH-48" style="edgeStyle=orthogonalEdgeStyle;rounded=0;orthogonalLoop=1;jettySize=auto;html=1;exitX=0;exitY=0.5;exitDx=0;exitDy=0;" parent="1" source="vlrHRavP4iwQakqAyyEH-15" target="vlrHRavP4iwQakqAyyEH-36" edge="1">
          <mxGeometry relative="1" as="geometry" />
        </mxCell>
        <mxCell id="vlrHRavP4iwQakqAyyEH-15" value="error?" style="rhombus;whiteSpace=wrap;html=1;" parent="1" vertex="1">
          <mxGeometry x="1082.5" y="263" width="129" height="93" as="geometry" />
        </mxCell>
        <mxCell id="vlrHRavP4iwQakqAyyEH-18" style="edgeStyle=orthogonalEdgeStyle;rounded=0;orthogonalLoop=1;jettySize=auto;html=1;exitX=0.5;exitY=1;exitDx=0;exitDy=0;" parent="1" source="vlrHRavP4iwQakqAyyEH-16" target="vlrHRavP4iwQakqAyyEH-17" edge="1">
          <mxGeometry relative="1" as="geometry" />
        </mxCell>
        <mxCell id="vlrHRavP4iwQakqAyyEH-16" value="error brand" style="shape=parallelogram;perimeter=parallelogramPerimeter;whiteSpace=wrap;html=1;fixedSize=1;" parent="1" vertex="1">
          <mxGeometry x="1177" y="349.5" width="120" height="54" as="geometry" />
        </mxCell>
        <mxCell id="gD2HQ-bASogtjCP1hktm-36" style="edgeStyle=orthogonalEdgeStyle;rounded=0;orthogonalLoop=1;jettySize=auto;html=1;exitX=0.5;exitY=1;exitDx=0;exitDy=0;entryX=0.5;entryY=0;entryDx=0;entryDy=0;" edge="1" parent="1" source="vlrHRavP4iwQakqAyyEH-17" target="gD2HQ-bASogtjCP1hktm-35">
          <mxGeometry relative="1" as="geometry" />
        </mxCell>
        <mxCell id="vlrHRavP4iwQakqAyyEH-17" value="userInterface(true)" style="shape=process;whiteSpace=wrap;html=1;backgroundOutline=1;" parent="1" vertex="1">
          <mxGeometry x="1177" y="434.5" width="120" height="60" as="geometry" />
        </mxCell>
        <mxCell id="vlrHRavP4iwQakqAyyEH-19" style="edgeStyle=orthogonalEdgeStyle;rounded=0;orthogonalLoop=1;jettySize=auto;html=1;exitX=1;exitY=0.5;exitDx=0;exitDy=0;" parent="1" source="vlrHRavP4iwQakqAyyEH-15" target="vlrHRavP4iwQakqAyyEH-16" edge="1">
          <mxGeometry relative="1" as="geometry" />
        </mxCell>
        <mxCell id="vlrHRavP4iwQakqAyyEH-22" value="yes" style="text;html=1;align=center;verticalAlign=middle;resizable=0;points=[];autosize=1;strokeColor=none;fillColor=none;" parent="1" vertex="1">
          <mxGeometry x="1221" y="283" width="37" height="26" as="geometry" />
        </mxCell>
        <mxCell id="vlrHRavP4iwQakqAyyEH-31" style="edgeStyle=orthogonalEdgeStyle;rounded=0;orthogonalLoop=1;jettySize=auto;html=1;" parent="1" source="vlrHRavP4iwQakqAyyEH-24" target="vlrHRavP4iwQakqAyyEH-25" edge="1">
          <mxGeometry relative="1" as="geometry" />
        </mxCell>
        <mxCell id="vlrHRavP4iwQakqAyyEH-24" value="say &quot;try one more\nBrand: &quot; or &quot;hello here are automobile base!\n Please, enter your one: \nBrand:&quot;&lt;div&gt;its depends on true or false, passed to the function&lt;/div&gt;" style="shape=parallelogram;perimeter=parallelogramPerimeter;whiteSpace=wrap;html=1;fixedSize=1;margin=10;" parent="1" vertex="1">
          <mxGeometry x="995" y="-145" width="304" height="99" as="geometry" />
        </mxCell>
        <mxCell id="vlrHRavP4iwQakqAyyEH-32" style="edgeStyle=orthogonalEdgeStyle;rounded=0;orthogonalLoop=1;jettySize=auto;html=1;exitX=0.5;exitY=1;exitDx=0;exitDy=0;entryX=0.5;entryY=0;entryDx=0;entryDy=0;" parent="1" source="vlrHRavP4iwQakqAyyEH-25" target="vlrHRavP4iwQakqAyyEH-27" edge="1">
          <mxGeometry relative="1" as="geometry" />
        </mxCell>
        <mxCell id="vlrHRavP4iwQakqAyyEH-25" value="tries to get brand of car" style="shape=parallelogram;perimeter=parallelogramPerimeter;whiteSpace=wrap;html=1;fixedSize=1;" parent="1" vertex="1">
          <mxGeometry x="1056.5" y="-10" width="181" height="60" as="geometry" />
        </mxCell>
        <mxCell id="vlrHRavP4iwQakqAyyEH-27" value="brand empty?" style="rhombus;whiteSpace=wrap;html=1;" parent="1" vertex="1">
          <mxGeometry x="1065.5" y="74" width="163" height="67" as="geometry" />
        </mxCell>
        <mxCell id="vlrHRavP4iwQakqAyyEH-34" style="edgeStyle=orthogonalEdgeStyle;rounded=0;orthogonalLoop=1;jettySize=auto;html=1;exitX=0.5;exitY=1;exitDx=0;exitDy=0;entryX=0.5;entryY=0;entryDx=0;entryDy=0;" parent="1" source="vlrHRavP4iwQakqAyyEH-28" target="vlrHRavP4iwQakqAyyEH-15" edge="1">
          <mxGeometry relative="1" as="geometry" />
        </mxCell>
        <mxCell id="vlrHRavP4iwQakqAyyEH-28" value="tries to get brand of car" style="shape=parallelogram;perimeter=parallelogramPerimeter;whiteSpace=wrap;html=1;fixedSize=1;" parent="1" vertex="1">
          <mxGeometry x="1056.5" y="168" width="181" height="60" as="geometry" />
        </mxCell>
        <mxCell id="vlrHRavP4iwQakqAyyEH-33" style="edgeStyle=orthogonalEdgeStyle;rounded=0;orthogonalLoop=1;jettySize=auto;html=1;exitX=0.5;exitY=1;exitDx=0;exitDy=0;" parent="1" source="vlrHRavP4iwQakqAyyEH-27" target="vlrHRavP4iwQakqAyyEH-28" edge="1">
          <mxGeometry relative="1" as="geometry" />
        </mxCell>
        <mxCell id="vlrHRavP4iwQakqAyyEH-52" style="edgeStyle=orthogonalEdgeStyle;rounded=0;orthogonalLoop=1;jettySize=auto;html=1;exitX=0.5;exitY=1;exitDx=0;exitDy=0;entryX=0.5;entryY=0;entryDx=0;entryDy=0;" parent="1" source="vlrHRavP4iwQakqAyyEH-36" target="vlrHRavP4iwQakqAyyEH-38" edge="1">
          <mxGeometry relative="1" as="geometry" />
        </mxCell>
        <mxCell id="vlrHRavP4iwQakqAyyEH-36" value="says &quot;colours: &quot;" style="shape=parallelogram;perimeter=parallelogramPerimeter;whiteSpace=wrap;html=1;fixedSize=1;" parent="1" vertex="1">
          <mxGeometry x="949" y="384" width="120" height="60" as="geometry" />
        </mxCell>
        <mxCell id="vlrHRavP4iwQakqAyyEH-38" value="get colors" style="shape=parallelogram;perimeter=parallelogramPerimeter;whiteSpace=wrap;html=1;fixedSize=1;" parent="1" vertex="1">
          <mxGeometry x="936.5" y="475" width="120" height="60" as="geometry" />
        </mxCell>
        <mxCell id="vlrHRavP4iwQakqAyyEH-53" style="edgeStyle=orthogonalEdgeStyle;rounded=0;orthogonalLoop=1;jettySize=auto;html=1;exitX=0.5;exitY=1;exitDx=0;exitDy=0;entryX=0.5;entryY=0;entryDx=0;entryDy=0;" parent="1" source="vlrHRavP4iwQakqAyyEH-39" target="vlrHRavP4iwQakqAyyEH-40" edge="1">
          <mxGeometry relative="1" as="geometry" />
        </mxCell>
        <mxCell id="vlrHRavP4iwQakqAyyEH-39" value="separate colors line in color`s words" style="rounded=0;whiteSpace=wrap;html=1;" parent="1" vertex="1">
          <mxGeometry x="930" y="555" width="120" height="60" as="geometry" />
        </mxCell>
        <mxCell id="vlrHRavP4iwQakqAyyEH-55" style="edgeStyle=orthogonalEdgeStyle;rounded=0;orthogonalLoop=1;jettySize=auto;html=1;exitX=0.5;exitY=1;exitDx=0;exitDy=0;entryX=0.5;entryY=0;entryDx=0;entryDy=0;" parent="1" source="vlrHRavP4iwQakqAyyEH-40" target="vlrHRavP4iwQakqAyyEH-41" edge="1">
          <mxGeometry relative="1" as="geometry" />
        </mxCell>
        <mxCell id="vlrHRavP4iwQakqAyyEH-57" style="edgeStyle=orthogonalEdgeStyle;rounded=0;orthogonalLoop=1;jettySize=auto;html=1;entryX=0;entryY=0.5;entryDx=0;entryDy=0;" parent="1" source="vlrHRavP4iwQakqAyyEH-40" target="vlrHRavP4iwQakqAyyEH-42" edge="1">
          <mxGeometry relative="1" as="geometry" />
        </mxCell>
        <mxCell id="vlrHRavP4iwQakqAyyEH-40" value="colors runs out" style="rhombus;whiteSpace=wrap;html=1;" parent="1" vertex="1">
          <mxGeometry x="905" y="647" width="171" height="44" as="geometry" />
        </mxCell>
        <mxCell id="gD2HQ-bASogtjCP1hktm-40" style="edgeStyle=orthogonalEdgeStyle;rounded=0;orthogonalLoop=1;jettySize=auto;html=1;exitX=0.5;exitY=1;exitDx=0;exitDy=0;entryX=0.5;entryY=0;entryDx=0;entryDy=0;" edge="1" parent="1" source="vlrHRavP4iwQakqAyyEH-41" target="gD2HQ-bASogtjCP1hktm-39">
          <mxGeometry relative="1" as="geometry" />
        </mxCell>
        <mxCell id="vlrHRavP4iwQakqAyyEH-41" value="push back in newCar.colors" style="rounded=0;whiteSpace=wrap;html=1;" parent="1" vertex="1">
          <mxGeometry x="930" y="726" width="120" height="60" as="geometry" />
        </mxCell>
        <mxCell id="vlrHRavP4iwQakqAyyEH-84" style="edgeStyle=orthogonalEdgeStyle;rounded=0;orthogonalLoop=1;jettySize=auto;html=1;exitX=0.5;exitY=0;exitDx=0;exitDy=0;entryX=0.5;entryY=0;entryDx=0;entryDy=0;" parent="1" source="vlrHRavP4iwQakqAyyEH-42" target="vlrHRavP4iwQakqAyyEH-67" edge="1">
          <mxGeometry relative="1" as="geometry">
            <Array as="points">
              <mxPoint x="1217" y="600" />
              <mxPoint x="1378" y="600" />
              <mxPoint x="1378" y="76" />
              <mxPoint x="1530" y="76" />
            </Array>
          </mxGeometry>
        </mxCell>
        <mxCell id="vlrHRavP4iwQakqAyyEH-42" value="error?" style="rhombus;whiteSpace=wrap;html=1;" parent="1" vertex="1">
          <mxGeometry x="1153" y="622" width="129" height="93" as="geometry" />
        </mxCell>
        <mxCell id="vlrHRavP4iwQakqAyyEH-43" style="edgeStyle=orthogonalEdgeStyle;rounded=0;orthogonalLoop=1;jettySize=auto;html=1;exitX=0.5;exitY=1;exitDx=0;exitDy=0;" parent="1" source="vlrHRavP4iwQakqAyyEH-44" target="vlrHRavP4iwQakqAyyEH-45" edge="1">
          <mxGeometry relative="1" as="geometry" />
        </mxCell>
        <mxCell id="vlrHRavP4iwQakqAyyEH-44" value="error color" style="shape=parallelogram;perimeter=parallelogramPerimeter;whiteSpace=wrap;html=1;fixedSize=1;" parent="1" vertex="1">
          <mxGeometry x="1282" y="713" width="120" height="54" as="geometry" />
        </mxCell>
        <mxCell id="gD2HQ-bASogtjCP1hktm-193" style="edgeStyle=orthogonalEdgeStyle;rounded=0;orthogonalLoop=1;jettySize=auto;html=1;exitX=0;exitY=0.5;exitDx=0;exitDy=0;entryX=1;entryY=0.5;entryDx=0;entryDy=0;" edge="1" parent="1" source="vlrHRavP4iwQakqAyyEH-45" target="gD2HQ-bASogtjCP1hktm-39">
          <mxGeometry relative="1" as="geometry" />
        </mxCell>
        <mxCell id="vlrHRavP4iwQakqAyyEH-45" value="userInterface(true)" style="shape=process;whiteSpace=wrap;html=1;backgroundOutline=1;" parent="1" vertex="1">
          <mxGeometry x="1282" y="798" width="120" height="60" as="geometry" />
        </mxCell>
        <mxCell id="vlrHRavP4iwQakqAyyEH-46" style="edgeStyle=orthogonalEdgeStyle;rounded=0;orthogonalLoop=1;jettySize=auto;html=1;exitX=1;exitY=0.5;exitDx=0;exitDy=0;" parent="1" source="vlrHRavP4iwQakqAyyEH-42" target="vlrHRavP4iwQakqAyyEH-44" edge="1">
          <mxGeometry relative="1" as="geometry" />
        </mxCell>
        <mxCell id="vlrHRavP4iwQakqAyyEH-47" value="yes" style="text;html=1;align=center;verticalAlign=middle;resizable=0;points=[];autosize=1;strokeColor=none;fillColor=none;" parent="1" vertex="1">
          <mxGeometry x="1278.5" y="642" width="37" height="26" as="geometry" />
        </mxCell>
        <mxCell id="vlrHRavP4iwQakqAyyEH-50" style="edgeStyle=orthogonalEdgeStyle;rounded=0;orthogonalLoop=1;jettySize=auto;html=1;exitX=0.5;exitY=1;exitDx=0;exitDy=0;entryX=0.5;entryY=0;entryDx=0;entryDy=0;" parent="1" source="vlrHRavP4iwQakqAyyEH-38" target="vlrHRavP4iwQakqAyyEH-39" edge="1">
          <mxGeometry relative="1" as="geometry" />
        </mxCell>
        <mxCell id="vlrHRavP4iwQakqAyyEH-56" value="no" style="text;html=1;align=center;verticalAlign=middle;resizable=0;points=[];autosize=1;strokeColor=none;fillColor=none;" parent="1" vertex="1">
          <mxGeometry x="994" y="691" width="31" height="26" as="geometry" />
        </mxCell>
        <mxCell id="vlrHRavP4iwQakqAyyEH-59" value="yes" style="text;html=1;align=center;verticalAlign=middle;resizable=0;points=[];autosize=1;strokeColor=none;fillColor=none;" parent="1" vertex="1">
          <mxGeometry x="1101" y="674" width="37" height="26" as="geometry" />
        </mxCell>
        <mxCell id="vlrHRavP4iwQakqAyyEH-62" value="no" style="text;html=1;align=center;verticalAlign=middle;resizable=0;points=[];autosize=1;strokeColor=none;fillColor=none;" parent="1" vertex="1">
          <mxGeometry x="1028" y="279" width="31" height="26" as="geometry" />
        </mxCell>
        <mxCell id="vlrHRavP4iwQakqAyyEH-66" style="edgeStyle=orthogonalEdgeStyle;rounded=0;orthogonalLoop=1;jettySize=auto;html=1;exitX=0.5;exitY=1;exitDx=0;exitDy=0;entryX=0.5;entryY=0;entryDx=0;entryDy=0;" parent="1" source="vlrHRavP4iwQakqAyyEH-67" target="vlrHRavP4iwQakqAyyEH-68" edge="1">
          <mxGeometry relative="1" as="geometry" />
        </mxCell>
        <mxCell id="vlrHRavP4iwQakqAyyEH-67" value="says &quot;year: &quot;" style="shape=parallelogram;perimeter=parallelogramPerimeter;whiteSpace=wrap;html=1;fixedSize=1;" parent="1" vertex="1">
          <mxGeometry x="1470" y="96" width="120" height="60" as="geometry" />
        </mxCell>
        <mxCell id="vlrHRavP4iwQakqAyyEH-68" value="get year" style="shape=parallelogram;perimeter=parallelogramPerimeter;whiteSpace=wrap;html=1;fixedSize=1;" parent="1" vertex="1">
          <mxGeometry x="1457.5" y="187" width="120" height="60" as="geometry" />
        </mxCell>
        <mxCell id="vlrHRavP4iwQakqAyyEH-72" style="edgeStyle=orthogonalEdgeStyle;rounded=0;orthogonalLoop=1;jettySize=auto;html=1;entryX=0;entryY=0.5;entryDx=0;entryDy=0;exitX=1;exitY=0.5;exitDx=0;exitDy=0;" parent="1" source="vlrHRavP4iwQakqAyyEH-74" target="vlrHRavP4iwQakqAyyEH-75" edge="1">
          <mxGeometry relative="1" as="geometry">
            <mxPoint x="1597" y="319.9999999999998" as="sourcePoint" />
          </mxGeometry>
        </mxCell>
        <mxCell id="vlrHRavP4iwQakqAyyEH-74" value="newCar.year = year" style="rounded=0;whiteSpace=wrap;html=1;" parent="1" vertex="1">
          <mxGeometry x="1457.5" y="289.5" width="120" height="60" as="geometry" />
        </mxCell>
        <mxCell id="vlrHRavP4iwQakqAyyEH-98" style="edgeStyle=orthogonalEdgeStyle;rounded=0;orthogonalLoop=1;jettySize=auto;html=1;exitX=0.5;exitY=1;exitDx=0;exitDy=0;" parent="1" source="vlrHRavP4iwQakqAyyEH-75" target="vlrHRavP4iwQakqAyyEH-87" edge="1">
          <mxGeometry relative="1" as="geometry" />
        </mxCell>
        <mxCell id="vlrHRavP4iwQakqAyyEH-75" value="error?" style="rhombus;whiteSpace=wrap;html=1;" parent="1" vertex="1">
          <mxGeometry x="1624" y="273" width="129" height="93" as="geometry" />
        </mxCell>
        <mxCell id="vlrHRavP4iwQakqAyyEH-76" style="edgeStyle=orthogonalEdgeStyle;rounded=0;orthogonalLoop=1;jettySize=auto;html=1;exitX=0.5;exitY=1;exitDx=0;exitDy=0;" parent="1" source="vlrHRavP4iwQakqAyyEH-77" target="vlrHRavP4iwQakqAyyEH-78" edge="1">
          <mxGeometry relative="1" as="geometry" />
        </mxCell>
        <mxCell id="vlrHRavP4iwQakqAyyEH-77" value="error year" style="shape=parallelogram;perimeter=parallelogramPerimeter;whiteSpace=wrap;html=1;fixedSize=1;" parent="1" vertex="1">
          <mxGeometry x="1803" y="364" width="120" height="54" as="geometry" />
        </mxCell>
        <mxCell id="gD2HQ-bASogtjCP1hktm-22" style="edgeStyle=orthogonalEdgeStyle;rounded=0;orthogonalLoop=1;jettySize=auto;html=1;exitX=0.5;exitY=1;exitDx=0;exitDy=0;" edge="1" parent="1" source="vlrHRavP4iwQakqAyyEH-78" target="gD2HQ-bASogtjCP1hktm-21">
          <mxGeometry relative="1" as="geometry" />
        </mxCell>
        <mxCell id="vlrHRavP4iwQakqAyyEH-78" value="userInterface(true)" style="shape=process;whiteSpace=wrap;html=1;backgroundOutline=1;" parent="1" vertex="1">
          <mxGeometry x="1803" y="449" width="120" height="60" as="geometry" />
        </mxCell>
        <mxCell id="vlrHRavP4iwQakqAyyEH-79" style="edgeStyle=orthogonalEdgeStyle;rounded=0;orthogonalLoop=1;jettySize=auto;html=1;exitX=1;exitY=0.5;exitDx=0;exitDy=0;" parent="1" source="vlrHRavP4iwQakqAyyEH-75" target="vlrHRavP4iwQakqAyyEH-77" edge="1">
          <mxGeometry relative="1" as="geometry" />
        </mxCell>
        <mxCell id="vlrHRavP4iwQakqAyyEH-80" value="yes" style="text;html=1;align=center;verticalAlign=middle;resizable=0;points=[];autosize=1;strokeColor=none;fillColor=none;" parent="1" vertex="1">
          <mxGeometry x="1766" y="289.5" width="37" height="26" as="geometry" />
        </mxCell>
        <mxCell id="vlrHRavP4iwQakqAyyEH-81" style="edgeStyle=orthogonalEdgeStyle;rounded=0;orthogonalLoop=1;jettySize=auto;html=1;exitX=0.5;exitY=1;exitDx=0;exitDy=0;entryX=0.5;entryY=0;entryDx=0;entryDy=0;" parent="1" source="vlrHRavP4iwQakqAyyEH-68" target="vlrHRavP4iwQakqAyyEH-74" edge="1">
          <mxGeometry relative="1" as="geometry">
            <mxPoint x="1511" y="267" as="targetPoint" />
          </mxGeometry>
        </mxCell>
        <mxCell id="vlrHRavP4iwQakqAyyEH-85" value="no" style="text;html=1;align=center;verticalAlign=middle;resizable=0;points=[];autosize=1;strokeColor=none;fillColor=none;" parent="1" vertex="1">
          <mxGeometry x="1242" y="571" width="31" height="26" as="geometry" />
        </mxCell>
        <mxCell id="vlrHRavP4iwQakqAyyEH-86" style="edgeStyle=orthogonalEdgeStyle;rounded=0;orthogonalLoop=1;jettySize=auto;html=1;exitX=0.5;exitY=1;exitDx=0;exitDy=0;entryX=0.5;entryY=0;entryDx=0;entryDy=0;" parent="1" source="vlrHRavP4iwQakqAyyEH-87" target="vlrHRavP4iwQakqAyyEH-88" edge="1">
          <mxGeometry relative="1" as="geometry" />
        </mxCell>
        <mxCell id="vlrHRavP4iwQakqAyyEH-87" value="says &quot;price: &quot;" style="shape=parallelogram;perimeter=parallelogramPerimeter;whiteSpace=wrap;html=1;fixedSize=1;" parent="1" vertex="1">
          <mxGeometry x="1629.5" y="444" width="120" height="60" as="geometry" />
        </mxCell>
        <mxCell id="vlrHRavP4iwQakqAyyEH-88" value="get price" style="shape=parallelogram;perimeter=parallelogramPerimeter;whiteSpace=wrap;html=1;fixedSize=1;" parent="1" vertex="1">
          <mxGeometry x="1617" y="535" width="120" height="60" as="geometry" />
        </mxCell>
        <mxCell id="vlrHRavP4iwQakqAyyEH-89" style="edgeStyle=orthogonalEdgeStyle;rounded=0;orthogonalLoop=1;jettySize=auto;html=1;entryX=0;entryY=0.5;entryDx=0;entryDy=0;exitX=1;exitY=0.5;exitDx=0;exitDy=0;" parent="1" source="vlrHRavP4iwQakqAyyEH-90" target="vlrHRavP4iwQakqAyyEH-91" edge="1">
          <mxGeometry relative="1" as="geometry">
            <mxPoint x="1756.5" y="667.9999999999998" as="sourcePoint" />
          </mxGeometry>
        </mxCell>
        <mxCell id="vlrHRavP4iwQakqAyyEH-90" value="newCar.price = price" style="rounded=0;whiteSpace=wrap;html=1;" parent="1" vertex="1">
          <mxGeometry x="1617" y="637.5" width="120" height="60" as="geometry" />
        </mxCell>
        <mxCell id="vlrHRavP4iwQakqAyyEH-102" style="edgeStyle=orthogonalEdgeStyle;rounded=0;orthogonalLoop=1;jettySize=auto;html=1;exitX=0.5;exitY=1;exitDx=0;exitDy=0;" parent="1" source="vlrHRavP4iwQakqAyyEH-91" target="vlrHRavP4iwQakqAyyEH-100" edge="1">
          <mxGeometry relative="1" as="geometry" />
        </mxCell>
        <mxCell id="vlrHRavP4iwQakqAyyEH-91" value="error?" style="rhombus;whiteSpace=wrap;html=1;" parent="1" vertex="1">
          <mxGeometry x="1833.5" y="621" width="129" height="93" as="geometry" />
        </mxCell>
        <mxCell id="vlrHRavP4iwQakqAyyEH-92" style="edgeStyle=orthogonalEdgeStyle;rounded=0;orthogonalLoop=1;jettySize=auto;html=1;exitX=0.5;exitY=1;exitDx=0;exitDy=0;" parent="1" source="vlrHRavP4iwQakqAyyEH-93" target="vlrHRavP4iwQakqAyyEH-94" edge="1">
          <mxGeometry relative="1" as="geometry" />
        </mxCell>
        <mxCell id="vlrHRavP4iwQakqAyyEH-93" value="error price" style="shape=parallelogram;perimeter=parallelogramPerimeter;whiteSpace=wrap;html=1;fixedSize=1;" parent="1" vertex="1">
          <mxGeometry x="1962.5" y="712" width="120" height="54" as="geometry" />
        </mxCell>
        <mxCell id="gD2HQ-bASogtjCP1hktm-42" style="edgeStyle=orthogonalEdgeStyle;rounded=0;orthogonalLoop=1;jettySize=auto;html=1;exitX=0.5;exitY=1;exitDx=0;exitDy=0;" edge="1" parent="1" source="vlrHRavP4iwQakqAyyEH-94" target="gD2HQ-bASogtjCP1hktm-33">
          <mxGeometry relative="1" as="geometry">
            <mxPoint x="2067.5" y="888" as="targetPoint" />
            <Array as="points">
              <mxPoint x="2023" y="1055" />
              <mxPoint x="1899" y="1055" />
            </Array>
          </mxGeometry>
        </mxCell>
        <mxCell id="vlrHRavP4iwQakqAyyEH-94" value="userInterface(true)" style="shape=process;whiteSpace=wrap;html=1;backgroundOutline=1;" parent="1" vertex="1">
          <mxGeometry x="1962.5" y="797" width="120" height="60" as="geometry" />
        </mxCell>
        <mxCell id="vlrHRavP4iwQakqAyyEH-95" style="edgeStyle=orthogonalEdgeStyle;rounded=0;orthogonalLoop=1;jettySize=auto;html=1;exitX=1;exitY=0.5;exitDx=0;exitDy=0;" parent="1" source="vlrHRavP4iwQakqAyyEH-91" target="vlrHRavP4iwQakqAyyEH-93" edge="1">
          <mxGeometry relative="1" as="geometry" />
        </mxCell>
        <mxCell id="vlrHRavP4iwQakqAyyEH-96" value="yes" style="text;html=1;align=center;verticalAlign=middle;resizable=0;points=[];autosize=1;strokeColor=none;fillColor=none;" parent="1" vertex="1">
          <mxGeometry x="1959" y="641" width="37" height="26" as="geometry" />
        </mxCell>
        <mxCell id="vlrHRavP4iwQakqAyyEH-97" style="edgeStyle=orthogonalEdgeStyle;rounded=0;orthogonalLoop=1;jettySize=auto;html=1;exitX=0.5;exitY=1;exitDx=0;exitDy=0;entryX=0.5;entryY=0;entryDx=0;entryDy=0;" parent="1" source="vlrHRavP4iwQakqAyyEH-88" target="vlrHRavP4iwQakqAyyEH-90" edge="1">
          <mxGeometry relative="1" as="geometry">
            <mxPoint x="1670.5" y="615" as="targetPoint" />
          </mxGeometry>
        </mxCell>
        <mxCell id="vlrHRavP4iwQakqAyyEH-99" value="no" style="text;html=1;align=center;verticalAlign=middle;resizable=0;points=[];autosize=1;strokeColor=none;fillColor=none;" parent="1" vertex="1">
          <mxGeometry x="1656" y="374" width="31" height="26" as="geometry" />
        </mxCell>
        <mxCell id="vlrHRavP4iwQakqAyyEH-100" value="DasAuto newAuto(newCar.brand, newCar.year, newCar.price, newCar.colors);" style="rounded=0;whiteSpace=wrap;html=1;" parent="1" vertex="1">
          <mxGeometry x="1791.5" y="901" width="213" height="60" as="geometry" />
        </mxCell>
        <mxCell id="gD2HQ-bASogtjCP1hktm-34" style="edgeStyle=orthogonalEdgeStyle;rounded=0;orthogonalLoop=1;jettySize=auto;html=1;exitX=0.5;exitY=1;exitDx=0;exitDy=0;entryX=0.5;entryY=0;entryDx=0;entryDy=0;" edge="1" parent="1" source="vlrHRavP4iwQakqAyyEH-101" target="gD2HQ-bASogtjCP1hktm-33">
          <mxGeometry relative="1" as="geometry" />
        </mxCell>
        <mxCell id="vlrHRavP4iwQakqAyyEH-101" value="userActions(newAuto)" style="shape=process;whiteSpace=wrap;html=1;backgroundOutline=1;" parent="1" vertex="1">
          <mxGeometry x="1815.25" y="983" width="165.5" height="60" as="geometry" />
        </mxCell>
        <mxCell id="vlrHRavP4iwQakqAyyEH-104" style="edgeStyle=orthogonalEdgeStyle;rounded=0;orthogonalLoop=1;jettySize=auto;html=1;exitX=0.5;exitY=1;exitDx=0;exitDy=0;" parent="1" source="vlrHRavP4iwQakqAyyEH-100" target="vlrHRavP4iwQakqAyyEH-101" edge="1">
          <mxGeometry relative="1" as="geometry" />
        </mxCell>
        <mxCell id="vlrHRavP4iwQakqAyyEH-163" style="edgeStyle=orthogonalEdgeStyle;rounded=0;orthogonalLoop=1;jettySize=auto;html=1;exitX=0.5;exitY=1;exitDx=0;exitDy=0;entryX=0.5;entryY=0;entryDx=0;entryDy=0;" parent="1" source="vlrHRavP4iwQakqAyyEH-106" target="vlrHRavP4iwQakqAyyEH-107" edge="1">
          <mxGeometry relative="1" as="geometry" />
        </mxCell>
        <mxCell id="vlrHRavP4iwQakqAyyEH-106" value="userActions(Auto)" style="ellipse;whiteSpace=wrap;html=1;" parent="1" vertex="1">
          <mxGeometry x="2260" y="-405" width="120" height="80" as="geometry" />
        </mxCell>
        <mxCell id="vlrHRavP4iwQakqAyyEH-162" style="edgeStyle=orthogonalEdgeStyle;rounded=0;orthogonalLoop=1;jettySize=auto;html=1;exitX=0.5;exitY=1;exitDx=0;exitDy=0;entryX=0.5;entryY=0;entryDx=0;entryDy=0;" parent="1" source="vlrHRavP4iwQakqAyyEH-107" target="vlrHRavP4iwQakqAyyEH-108" edge="1">
          <mxGeometry relative="1" as="geometry" />
        </mxCell>
        <mxCell id="vlrHRavP4iwQakqAyyEH-107" value="cout &lt;&lt; &quot;\n\navaible actions for &quot; &lt;&lt; Auto.getBrand() &lt;&lt; &quot;: \n1 - save this auto\n2 - set another one\n3 - delete older year\n4 - output all saved autos\n5 - add this auto in start\n6 - leave it\nour autos have more actions, but I don`t wanna draw larger block-schema, so sorry :/\n&quot;;" style="shape=parallelogram;perimeter=parallelogramPerimeter;whiteSpace=wrap;html=1;fixedSize=1;spacingLeft=21;spacingRight=21;" parent="1" vertex="1">
          <mxGeometry x="2177" y="-296" width="286" height="131" as="geometry" />
        </mxCell>
        <mxCell id="vlrHRavP4iwQakqAyyEH-161" style="edgeStyle=orthogonalEdgeStyle;rounded=0;orthogonalLoop=1;jettySize=auto;html=1;exitX=0.5;exitY=1;exitDx=0;exitDy=0;entryX=0.5;entryY=0;entryDx=0;entryDy=0;" parent="1" source="vlrHRavP4iwQakqAyyEH-108" target="vlrHRavP4iwQakqAyyEH-109" edge="1">
          <mxGeometry relative="1" as="geometry" />
        </mxCell>
        <mxCell id="vlrHRavP4iwQakqAyyEH-108" value="enter action" style="shape=parallelogram;perimeter=parallelogramPerimeter;whiteSpace=wrap;html=1;fixedSize=1;" parent="1" vertex="1">
          <mxGeometry x="2260" y="-128" width="120" height="60" as="geometry" />
        </mxCell>
        <mxCell id="vlrHRavP4iwQakqAyyEH-133" style="edgeStyle=orthogonalEdgeStyle;rounded=0;orthogonalLoop=1;jettySize=auto;html=1;exitX=0.5;exitY=1;exitDx=0;exitDy=0;" parent="1" source="vlrHRavP4iwQakqAyyEH-109" target="vlrHRavP4iwQakqAyyEH-111" edge="1">
          <mxGeometry relative="1" as="geometry" />
        </mxCell>
        <mxCell id="vlrHRavP4iwQakqAyyEH-134" style="edgeStyle=orthogonalEdgeStyle;rounded=0;orthogonalLoop=1;jettySize=auto;html=1;" parent="1" source="vlrHRavP4iwQakqAyyEH-109" target="vlrHRavP4iwQakqAyyEH-112" edge="1">
          <mxGeometry relative="1" as="geometry" />
        </mxCell>
        <mxCell id="vlrHRavP4iwQakqAyyEH-135" style="edgeStyle=orthogonalEdgeStyle;rounded=0;orthogonalLoop=1;jettySize=auto;html=1;" parent="1" source="vlrHRavP4iwQakqAyyEH-109" target="vlrHRavP4iwQakqAyyEH-114" edge="1">
          <mxGeometry relative="1" as="geometry">
            <Array as="points">
              <mxPoint x="2317" y="103" />
              <mxPoint x="2343" y="103" />
            </Array>
          </mxGeometry>
        </mxCell>
        <mxCell id="vlrHRavP4iwQakqAyyEH-137" style="edgeStyle=orthogonalEdgeStyle;rounded=0;orthogonalLoop=1;jettySize=auto;html=1;exitX=0.5;exitY=1;exitDx=0;exitDy=0;" parent="1" source="vlrHRavP4iwQakqAyyEH-109" target="vlrHRavP4iwQakqAyyEH-129" edge="1">
          <mxGeometry relative="1" as="geometry">
            <Array as="points">
              <mxPoint x="2318" y="103" />
              <mxPoint x="2572" y="103" />
            </Array>
          </mxGeometry>
        </mxCell>
        <mxCell id="vlrHRavP4iwQakqAyyEH-138" style="edgeStyle=orthogonalEdgeStyle;rounded=0;orthogonalLoop=1;jettySize=auto;html=1;exitX=0.5;exitY=1;exitDx=0;exitDy=0;" parent="1" source="vlrHRavP4iwQakqAyyEH-109" target="vlrHRavP4iwQakqAyyEH-130" edge="1">
          <mxGeometry relative="1" as="geometry" />
        </mxCell>
        <mxCell id="vlrHRavP4iwQakqAyyEH-139" style="edgeStyle=orthogonalEdgeStyle;rounded=0;orthogonalLoop=1;jettySize=auto;html=1;exitX=0.5;exitY=1;exitDx=0;exitDy=0;entryX=0.5;entryY=0;entryDx=0;entryDy=0;" parent="1" source="vlrHRavP4iwQakqAyyEH-109" target="vlrHRavP4iwQakqAyyEH-131" edge="1">
          <mxGeometry relative="1" as="geometry">
            <Array as="points">
              <mxPoint x="2317" y="102" />
              <mxPoint x="2930" y="102" />
            </Array>
          </mxGeometry>
        </mxCell>
        <mxCell id="vlrHRavP4iwQakqAyyEH-140" style="edgeStyle=orthogonalEdgeStyle;rounded=0;orthogonalLoop=1;jettySize=auto;html=1;exitX=0.5;exitY=1;exitDx=0;exitDy=0;" parent="1" source="vlrHRavP4iwQakqAyyEH-109" target="vlrHRavP4iwQakqAyyEH-132" edge="1">
          <mxGeometry relative="1" as="geometry" />
        </mxCell>
        <mxCell id="vlrHRavP4iwQakqAyyEH-143" value="3" style="edgeLabel;html=1;align=center;verticalAlign=middle;resizable=0;points=[];" parent="vlrHRavP4iwQakqAyyEH-140" connectable="0" vertex="1">
          <mxGeometry x="-0.8164" y="8" relative="1" as="geometry">
            <mxPoint x="3" y="-5" as="offset" />
          </mxGeometry>
        </mxCell>
        <mxCell id="vlrHRavP4iwQakqAyyEH-109" value="action" style="rhombus;whiteSpace=wrap;html=1;" parent="1" vertex="1">
          <mxGeometry x="2235" y="-30" width="165" height="80" as="geometry" />
        </mxCell>
        <mxCell id="vlrHRavP4iwQakqAyyEH-154" style="edgeStyle=orthogonalEdgeStyle;rounded=0;orthogonalLoop=1;jettySize=auto;html=1;entryX=0;entryY=0.5;entryDx=0;entryDy=0;" parent="1" source="vlrHRavP4iwQakqAyyEH-111" target="vlrHRavP4iwQakqAyyEH-148" edge="1">
          <mxGeometry relative="1" as="geometry">
            <Array as="points">
              <mxPoint x="1965" y="308" />
              <mxPoint x="2162" y="308" />
              <mxPoint x="2162" y="705" />
            </Array>
          </mxGeometry>
        </mxCell>
        <mxCell id="vlrHRavP4iwQakqAyyEH-111" value="Auto.save()" style="shape=process;whiteSpace=wrap;html=1;backgroundOutline=1;" parent="1" vertex="1">
          <mxGeometry x="1905" y="156" width="120" height="60" as="geometry" />
        </mxCell>
        <mxCell id="vlrHRavP4iwQakqAyyEH-155" style="edgeStyle=orthogonalEdgeStyle;rounded=0;orthogonalLoop=1;jettySize=auto;html=1;entryX=0;entryY=0.5;entryDx=0;entryDy=0;" parent="1" source="vlrHRavP4iwQakqAyyEH-112" target="vlrHRavP4iwQakqAyyEH-148" edge="1">
          <mxGeometry relative="1" as="geometry">
            <Array as="points">
              <mxPoint x="2163" y="705" />
            </Array>
          </mxGeometry>
        </mxCell>
        <mxCell id="vlrHRavP4iwQakqAyyEH-112" value="userInterface(false)" style="shape=process;whiteSpace=wrap;html=1;backgroundOutline=1;" parent="1" vertex="1">
          <mxGeometry x="2075" y="156" width="168" height="60" as="geometry" />
        </mxCell>
        <mxCell id="vlrHRavP4iwQakqAyyEH-113" style="edgeStyle=orthogonalEdgeStyle;rounded=0;orthogonalLoop=1;jettySize=auto;html=1;exitX=0.5;exitY=1;exitDx=0;exitDy=0;entryX=0.5;entryY=0;entryDx=0;entryDy=0;" parent="1" source="vlrHRavP4iwQakqAyyEH-114" target="vlrHRavP4iwQakqAyyEH-115" edge="1">
          <mxGeometry relative="1" as="geometry" />
        </mxCell>
        <mxCell id="vlrHRavP4iwQakqAyyEH-114" value="says &quot;enter year: &quot;" style="shape=parallelogram;perimeter=parallelogramPerimeter;whiteSpace=wrap;html=1;fixedSize=1;" parent="1" vertex="1">
          <mxGeometry x="2282.5" y="152.5" width="120" height="60" as="geometry" />
        </mxCell>
        <mxCell id="vlrHRavP4iwQakqAyyEH-128" style="edgeStyle=orthogonalEdgeStyle;rounded=0;orthogonalLoop=1;jettySize=auto;html=1;exitX=0.5;exitY=1;exitDx=0;exitDy=0;entryX=0.5;entryY=0;entryDx=0;entryDy=0;" parent="1" source="vlrHRavP4iwQakqAyyEH-115" target="vlrHRavP4iwQakqAyyEH-119" edge="1">
          <mxGeometry relative="1" as="geometry" />
        </mxCell>
        <mxCell id="vlrHRavP4iwQakqAyyEH-115" value="get year" style="shape=parallelogram;perimeter=parallelogramPerimeter;whiteSpace=wrap;html=1;fixedSize=1;" parent="1" vertex="1">
          <mxGeometry x="2270" y="243.5" width="120" height="60" as="geometry" />
        </mxCell>
        <mxCell id="vlrHRavP4iwQakqAyyEH-156" style="edgeStyle=orthogonalEdgeStyle;rounded=0;orthogonalLoop=1;jettySize=auto;html=1;entryX=0;entryY=0.5;entryDx=0;entryDy=0;exitX=0.5;exitY=1;exitDx=0;exitDy=0;" parent="1" source="vlrHRavP4iwQakqAyyEH-117" target="vlrHRavP4iwQakqAyyEH-148" edge="1">
          <mxGeometry relative="1" as="geometry" />
        </mxCell>
        <mxCell id="vlrHRavP4iwQakqAyyEH-117" value="Auto.deleteOlder(year)" style="rounded=0;whiteSpace=wrap;html=1;" parent="1" vertex="1">
          <mxGeometry x="2260" y="511.5" width="143" height="60" as="geometry" />
        </mxCell>
        <mxCell id="vlrHRavP4iwQakqAyyEH-127" style="edgeStyle=orthogonalEdgeStyle;rounded=0;orthogonalLoop=1;jettySize=auto;html=1;exitX=0.5;exitY=1;exitDx=0;exitDy=0;entryX=0.5;entryY=0;entryDx=0;entryDy=0;" parent="1" source="vlrHRavP4iwQakqAyyEH-119" target="vlrHRavP4iwQakqAyyEH-117" edge="1">
          <mxGeometry relative="1" as="geometry" />
        </mxCell>
        <mxCell id="vlrHRavP4iwQakqAyyEH-119" value="error?" style="rhombus;whiteSpace=wrap;html=1;" parent="1" vertex="1">
          <mxGeometry x="2267" y="342" width="129" height="93" as="geometry" />
        </mxCell>
        <mxCell id="vlrHRavP4iwQakqAyyEH-120" style="edgeStyle=orthogonalEdgeStyle;rounded=0;orthogonalLoop=1;jettySize=auto;html=1;exitX=0.5;exitY=1;exitDx=0;exitDy=0;" parent="1" source="vlrHRavP4iwQakqAyyEH-121" target="vlrHRavP4iwQakqAyyEH-122" edge="1">
          <mxGeometry relative="1" as="geometry" />
        </mxCell>
        <mxCell id="vlrHRavP4iwQakqAyyEH-121" value="error year" style="shape=parallelogram;perimeter=parallelogramPerimeter;whiteSpace=wrap;html=1;fixedSize=1;" parent="1" vertex="1">
          <mxGeometry x="2443" y="390" width="120" height="54" as="geometry" />
        </mxCell>
        <mxCell id="gD2HQ-bASogtjCP1hktm-26" style="edgeStyle=orthogonalEdgeStyle;rounded=0;orthogonalLoop=1;jettySize=auto;html=1;exitX=0.5;exitY=1;exitDx=0;exitDy=0;entryX=0.5;entryY=0;entryDx=0;entryDy=0;" edge="1" parent="1" source="vlrHRavP4iwQakqAyyEH-122" target="gD2HQ-bASogtjCP1hktm-23">
          <mxGeometry relative="1" as="geometry" />
        </mxCell>
        <mxCell id="vlrHRavP4iwQakqAyyEH-122" value="userInterface(true)" style="shape=process;whiteSpace=wrap;html=1;backgroundOutline=1;" parent="1" vertex="1">
          <mxGeometry x="2443" y="475" width="120" height="60" as="geometry" />
        </mxCell>
        <mxCell id="vlrHRavP4iwQakqAyyEH-123" style="edgeStyle=orthogonalEdgeStyle;rounded=0;orthogonalLoop=1;jettySize=auto;html=1;exitX=1;exitY=0.5;exitDx=0;exitDy=0;" parent="1" source="vlrHRavP4iwQakqAyyEH-119" target="vlrHRavP4iwQakqAyyEH-121" edge="1">
          <mxGeometry relative="1" as="geometry" />
        </mxCell>
        <mxCell id="vlrHRavP4iwQakqAyyEH-124" value="yes" style="text;html=1;align=center;verticalAlign=middle;resizable=0;points=[];autosize=1;strokeColor=none;fillColor=none;" parent="1" vertex="1">
          <mxGeometry x="2409" y="358.5" width="37" height="26" as="geometry" />
        </mxCell>
        <mxCell id="vlrHRavP4iwQakqAyyEH-126" value="no" style="text;html=1;align=center;verticalAlign=middle;resizable=0;points=[];autosize=1;strokeColor=none;fillColor=none;" parent="1" vertex="1">
          <mxGeometry x="2299" y="443" width="31" height="26" as="geometry" />
        </mxCell>
        <mxCell id="vlrHRavP4iwQakqAyyEH-157" style="edgeStyle=orthogonalEdgeStyle;rounded=0;orthogonalLoop=1;jettySize=auto;html=1;exitX=0.5;exitY=1;exitDx=0;exitDy=0;entryX=0.5;entryY=0;entryDx=0;entryDy=0;" parent="1" source="vlrHRavP4iwQakqAyyEH-129" target="vlrHRavP4iwQakqAyyEH-148" edge="1">
          <mxGeometry relative="1" as="geometry">
            <Array as="points">
              <mxPoint x="2571" y="375" />
              <mxPoint x="2638" y="375" />
              <mxPoint x="2638" y="630" />
              <mxPoint x="2533" y="630" />
            </Array>
          </mxGeometry>
        </mxCell>
        <mxCell id="vlrHRavP4iwQakqAyyEH-129" value="Auto.outputAutos()" style="shape=process;whiteSpace=wrap;html=1;backgroundOutline=1;" parent="1" vertex="1">
          <mxGeometry x="2496" y="153" width="151" height="60" as="geometry" />
        </mxCell>
        <mxCell id="vlrHRavP4iwQakqAyyEH-158" style="edgeStyle=orthogonalEdgeStyle;rounded=0;orthogonalLoop=1;jettySize=auto;html=1;entryX=0.5;entryY=0;entryDx=0;entryDy=0;" parent="1" source="vlrHRavP4iwQakqAyyEH-130" target="vlrHRavP4iwQakqAyyEH-148" edge="1">
          <mxGeometry relative="1" as="geometry">
            <Array as="points">
              <mxPoint x="2777" y="630" />
              <mxPoint x="2533" y="630" />
            </Array>
          </mxGeometry>
        </mxCell>
        <mxCell id="vlrHRavP4iwQakqAyyEH-130" value="Auto.AddInStart()" style="shape=process;whiteSpace=wrap;html=1;backgroundOutline=1;" parent="1" vertex="1">
          <mxGeometry x="2717" y="153" width="120" height="60" as="geometry" />
        </mxCell>
        <mxCell id="vlrHRavP4iwQakqAyyEH-131" value="return;" style="ellipse;whiteSpace=wrap;html=1;" parent="1" vertex="1">
          <mxGeometry x="2870" y="142.5" width="120" height="80" as="geometry" />
        </mxCell>
        <mxCell id="gD2HQ-bASogtjCP1hktm-32" style="edgeStyle=orthogonalEdgeStyle;rounded=0;orthogonalLoop=1;jettySize=auto;html=1;exitX=0;exitY=0.5;exitDx=0;exitDy=0;entryX=1;entryY=0.5;entryDx=0;entryDy=0;" edge="1" parent="1" source="vlrHRavP4iwQakqAyyEH-132" target="vlrHRavP4iwQakqAyyEH-131">
          <mxGeometry relative="1" as="geometry">
            <mxPoint x="3088.5" y="233.5" as="targetPoint" />
          </mxGeometry>
        </mxCell>
        <mxCell id="vlrHRavP4iwQakqAyyEH-132" value="error action" style="shape=parallelogram;perimeter=parallelogramPerimeter;whiteSpace=wrap;html=1;fixedSize=1;" parent="1" vertex="1">
          <mxGeometry x="3036" y="152.5" width="120" height="60" as="geometry" />
        </mxCell>
        <mxCell id="vlrHRavP4iwQakqAyyEH-141" value="1" style="text;html=1;align=center;verticalAlign=middle;resizable=0;points=[];autosize=1;strokeColor=none;fillColor=none;" parent="1" vertex="1">
          <mxGeometry x="1956" y="65" width="25" height="26" as="geometry" />
        </mxCell>
        <mxCell id="vlrHRavP4iwQakqAyyEH-142" value="2" style="text;html=1;align=center;verticalAlign=middle;resizable=0;points=[];autosize=1;strokeColor=none;fillColor=none;" parent="1" vertex="1">
          <mxGeometry x="2142" y="72" width="25" height="26" as="geometry" />
        </mxCell>
        <mxCell id="vlrHRavP4iwQakqAyyEH-144" value="4" style="text;html=1;align=center;verticalAlign=middle;resizable=0;points=[];autosize=1;strokeColor=none;fillColor=none;" parent="1" vertex="1">
          <mxGeometry x="2558" y="65" width="25" height="26" as="geometry" />
        </mxCell>
        <mxCell id="vlrHRavP4iwQakqAyyEH-145" value="5" style="text;html=1;align=center;verticalAlign=middle;resizable=0;points=[];autosize=1;strokeColor=none;fillColor=none;" parent="1" vertex="1">
          <mxGeometry x="2762" y="68" width="25" height="26" as="geometry" />
        </mxCell>
        <mxCell id="vlrHRavP4iwQakqAyyEH-146" value="6" style="text;html=1;align=center;verticalAlign=middle;resizable=0;points=[];autosize=1;strokeColor=none;fillColor=none;" parent="1" vertex="1">
          <mxGeometry x="2917.5" y="65" width="25" height="26" as="geometry" />
        </mxCell>
        <mxCell id="vlrHRavP4iwQakqAyyEH-147" value="something else" style="text;html=1;align=center;verticalAlign=middle;resizable=0;points=[];autosize=1;strokeColor=none;fillColor=none;" parent="1" vertex="1">
          <mxGeometry x="3039" y="62.5" width="99" height="26" as="geometry" />
        </mxCell>
        <mxCell id="vlrHRavP4iwQakqAyyEH-160" style="edgeStyle=orthogonalEdgeStyle;rounded=0;orthogonalLoop=1;jettySize=auto;html=1;exitX=0.5;exitY=1;exitDx=0;exitDy=0;" parent="1" source="vlrHRavP4iwQakqAyyEH-148" target="vlrHRavP4iwQakqAyyEH-159" edge="1">
          <mxGeometry relative="1" as="geometry" />
        </mxCell>
        <mxCell id="vlrHRavP4iwQakqAyyEH-148" value="error?" style="rhombus;whiteSpace=wrap;html=1;" parent="1" vertex="1">
          <mxGeometry x="2468" y="658" width="129" height="93" as="geometry" />
        </mxCell>
        <mxCell id="gD2HQ-bASogtjCP1hktm-28" style="edgeStyle=orthogonalEdgeStyle;rounded=0;orthogonalLoop=1;jettySize=auto;html=1;exitX=0.5;exitY=1;exitDx=0;exitDy=0;" edge="1" parent="1" source="vlrHRavP4iwQakqAyyEH-150" target="gD2HQ-bASogtjCP1hktm-29">
          <mxGeometry relative="1" as="geometry">
            <mxPoint x="2727" y="814" as="targetPoint" />
            <Array as="points">
              <mxPoint x="2727" y="903" />
              <mxPoint x="2533" y="903" />
            </Array>
          </mxGeometry>
        </mxCell>
        <mxCell id="vlrHRavP4iwQakqAyyEH-150" value="error occured" style="shape=parallelogram;perimeter=parallelogramPerimeter;whiteSpace=wrap;html=1;fixedSize=1;" parent="1" vertex="1">
          <mxGeometry x="2667" y="739" width="120" height="54" as="geometry" />
        </mxCell>
        <mxCell id="vlrHRavP4iwQakqAyyEH-152" style="edgeStyle=orthogonalEdgeStyle;rounded=0;orthogonalLoop=1;jettySize=auto;html=1;exitX=1;exitY=0.5;exitDx=0;exitDy=0;" parent="1" source="vlrHRavP4iwQakqAyyEH-148" target="vlrHRavP4iwQakqAyyEH-150" edge="1">
          <mxGeometry relative="1" as="geometry" />
        </mxCell>
        <mxCell id="vlrHRavP4iwQakqAyyEH-153" value="yes" style="text;html=1;align=center;verticalAlign=middle;resizable=0;points=[];autosize=1;strokeColor=none;fillColor=none;" parent="1" vertex="1">
          <mxGeometry x="2593.5" y="678" width="37" height="26" as="geometry" />
        </mxCell>
        <mxCell id="gD2HQ-bASogtjCP1hktm-30" style="edgeStyle=orthogonalEdgeStyle;rounded=0;orthogonalLoop=1;jettySize=auto;html=1;exitX=0.5;exitY=1;exitDx=0;exitDy=0;entryX=0.5;entryY=0;entryDx=0;entryDy=0;" edge="1" parent="1" source="vlrHRavP4iwQakqAyyEH-159" target="gD2HQ-bASogtjCP1hktm-29">
          <mxGeometry relative="1" as="geometry" />
        </mxCell>
        <mxCell id="vlrHRavP4iwQakqAyyEH-159" value="userActions(Auto)" style="shape=process;whiteSpace=wrap;html=1;backgroundOutline=1;" parent="1" vertex="1">
          <mxGeometry x="2443" y="831" width="179" height="60" as="geometry" />
        </mxCell>
        <mxCell id="vlrHRavP4iwQakqAyyEH-167" style="edgeStyle=orthogonalEdgeStyle;rounded=0;orthogonalLoop=1;jettySize=auto;html=1;" parent="1" source="vlrHRavP4iwQakqAyyEH-164" target="vlrHRavP4iwQakqAyyEH-165" edge="1">
          <mxGeometry relative="1" as="geometry" />
        </mxCell>
        <mxCell id="vlrHRavP4iwQakqAyyEH-164" value="DasAuto::addInStart()" style="ellipse;whiteSpace=wrap;html=1;" parent="1" vertex="1">
          <mxGeometry x="1030" y="1050" width="176" height="80" as="geometry" />
        </mxCell>
        <mxCell id="vlrHRavP4iwQakqAyyEH-168" style="edgeStyle=orthogonalEdgeStyle;rounded=0;orthogonalLoop=1;jettySize=auto;html=1;" parent="1" source="vlrHRavP4iwQakqAyyEH-165" target="vlrHRavP4iwQakqAyyEH-166" edge="1">
          <mxGeometry relative="1" as="geometry" />
        </mxCell>
        <mxCell id="vlrHRavP4iwQakqAyyEH-165" value="start_flag = true" style="rounded=0;whiteSpace=wrap;html=1;" parent="1" vertex="1">
          <mxGeometry x="1058" y="1161" width="120" height="60" as="geometry" />
        </mxCell>
        <mxCell id="vlrHRavP4iwQakqAyyEH-166" value="return this" style="ellipse;whiteSpace=wrap;html=1;" parent="1" vertex="1">
          <mxGeometry x="1058" y="1245" width="120" height="80" as="geometry" />
        </mxCell>
        <mxCell id="vlrHRavP4iwQakqAyyEH-175" style="edgeStyle=orthogonalEdgeStyle;rounded=0;orthogonalLoop=1;jettySize=auto;html=1;exitX=0.5;exitY=1;exitDx=0;exitDy=0;entryX=0.5;entryY=0;entryDx=0;entryDy=0;" parent="1" source="vlrHRavP4iwQakqAyyEH-169" target="vlrHRavP4iwQakqAyyEH-171" edge="1">
          <mxGeometry relative="1" as="geometry" />
        </mxCell>
        <mxCell id="vlrHRavP4iwQakqAyyEH-169" value="DasAuto::deleteOlder(int year)" style="ellipse;whiteSpace=wrap;html=1;" parent="1" vertex="1">
          <mxGeometry x="1387" y="1046" width="225" height="80" as="geometry" />
        </mxCell>
        <mxCell id="vlrHRavP4iwQakqAyyEH-177" style="edgeStyle=orthogonalEdgeStyle;rounded=0;orthogonalLoop=1;jettySize=auto;html=1;exitX=0.5;exitY=1;exitDx=0;exitDy=0;entryX=0.5;entryY=0;entryDx=0;entryDy=0;" parent="1" source="vlrHRavP4iwQakqAyyEH-170" target="vlrHRavP4iwQakqAyyEH-172" edge="1">
          <mxGeometry relative="1" as="geometry" />
        </mxCell>
        <mxCell id="vlrHRavP4iwQakqAyyEH-170" value="open file temp by path &quot;temp&quot; in&amp;nbsp; bin&amp;nbsp;&lt;div&gt;write mode&lt;/div&gt;" style="rounded=0;whiteSpace=wrap;html=1;" parent="1" vertex="1">
          <mxGeometry x="1439.5" y="1261" width="120" height="60" as="geometry" />
        </mxCell>
        <mxCell id="vlrHRavP4iwQakqAyyEH-176" style="edgeStyle=orthogonalEdgeStyle;rounded=0;orthogonalLoop=1;jettySize=auto;html=1;exitX=0.5;exitY=1;exitDx=0;exitDy=0;entryX=0.5;entryY=0;entryDx=0;entryDy=0;" parent="1" source="vlrHRavP4iwQakqAyyEH-171" target="vlrHRavP4iwQakqAyyEH-170" edge="1">
          <mxGeometry relative="1" as="geometry" />
        </mxCell>
        <mxCell id="vlrHRavP4iwQakqAyyEH-171" value="open file db by path dbPath in&amp;nbsp; bin&amp;nbsp;&lt;div&gt;read mode&lt;/div&gt;" style="rounded=0;whiteSpace=wrap;html=1;" parent="1" vertex="1">
          <mxGeometry x="1440" y="1168" width="120" height="60" as="geometry" />
        </mxCell>
        <mxCell id="vlrHRavP4iwQakqAyyEH-178" style="edgeStyle=orthogonalEdgeStyle;rounded=0;orthogonalLoop=1;jettySize=auto;html=1;exitX=0.5;exitY=1;exitDx=0;exitDy=0;entryX=0.5;entryY=0;entryDx=0;entryDy=0;" parent="1" source="vlrHRavP4iwQakqAyyEH-172" target="vlrHRavP4iwQakqAyyEH-173" edge="1">
          <mxGeometry relative="1" as="geometry" />
        </mxCell>
        <mxCell id="vlrHRavP4iwQakqAyyEH-185" style="edgeStyle=orthogonalEdgeStyle;rounded=0;orthogonalLoop=1;jettySize=auto;html=1;exitX=0;exitY=0.5;exitDx=0;exitDy=0;entryX=0.5;entryY=0;entryDx=0;entryDy=0;" parent="1" source="vlrHRavP4iwQakqAyyEH-172" target="vlrHRavP4iwQakqAyyEH-181" edge="1">
          <mxGeometry relative="1" as="geometry" />
        </mxCell>
        <mxCell id="vlrHRavP4iwQakqAyyEH-172" value="one of files cant open" style="rhombus;whiteSpace=wrap;html=1;" parent="1" vertex="1">
          <mxGeometry x="1417" y="1349" width="165" height="80" as="geometry" />
        </mxCell>
        <mxCell id="vlrHRavP4iwQakqAyyEH-179" style="edgeStyle=orthogonalEdgeStyle;rounded=0;orthogonalLoop=1;jettySize=auto;html=1;" parent="1" source="vlrHRavP4iwQakqAyyEH-173" target="vlrHRavP4iwQakqAyyEH-174" edge="1">
          <mxGeometry relative="1" as="geometry" />
        </mxCell>
        <mxCell id="vlrHRavP4iwQakqAyyEH-173" value="file error" style="shape=parallelogram;perimeter=parallelogramPerimeter;whiteSpace=wrap;html=1;fixedSize=1;" parent="1" vertex="1">
          <mxGeometry x="1440" y="1456" width="120" height="60" as="geometry" />
        </mxCell>
        <mxCell id="vlrHRavP4iwQakqAyyEH-174" value="return this" style="ellipse;whiteSpace=wrap;html=1;" parent="1" vertex="1">
          <mxGeometry x="1440" y="1547" width="120" height="80" as="geometry" />
        </mxCell>
        <mxCell id="vlrHRavP4iwQakqAyyEH-180" value="yes" style="text;html=1;align=center;verticalAlign=middle;resizable=0;points=[];autosize=1;strokeColor=none;fillColor=none;" parent="1" vertex="1">
          <mxGeometry x="1525" y="1413" width="37" height="26" as="geometry" />
        </mxCell>
        <mxCell id="vlrHRavP4iwQakqAyyEH-182" style="edgeStyle=orthogonalEdgeStyle;rounded=0;orthogonalLoop=1;jettySize=auto;html=1;exitX=0.5;exitY=1;exitDx=0;exitDy=0;" parent="1" source="vlrHRavP4iwQakqAyyEH-181" edge="1">
          <mxGeometry relative="1" as="geometry">
            <mxPoint x="1260.181818181818" y="1547.001818181818" as="targetPoint" />
          </mxGeometry>
        </mxCell>
        <mxCell id="gD2HQ-bASogtjCP1hktm-45" style="edgeStyle=orthogonalEdgeStyle;rounded=0;orthogonalLoop=1;jettySize=auto;html=1;exitX=1;exitY=0.5;exitDx=0;exitDy=0;entryX=0.5;entryY=0;entryDx=0;entryDy=0;" edge="1" parent="1" source="vlrHRavP4iwQakqAyyEH-181" target="gD2HQ-bASogtjCP1hktm-15">
          <mxGeometry relative="1" as="geometry">
            <Array as="points">
              <mxPoint x="1412" y="1478" />
              <mxPoint x="1412" y="1750" />
              <mxPoint x="1610" y="1750" />
              <mxPoint x="1610" y="1979" />
              <mxPoint x="1367" y="1979" />
            </Array>
          </mxGeometry>
        </mxCell>
        <mxCell id="vlrHRavP4iwQakqAyyEH-181" value="db has something" style="rhombus;whiteSpace=wrap;html=1;" parent="1" vertex="1">
          <mxGeometry x="1190" y="1437.82" width="141" height="80" as="geometry" />
        </mxCell>
        <mxCell id="vlrHRavP4iwQakqAyyEH-186" value="no" style="text;html=1;align=center;verticalAlign=middle;resizable=0;points=[];autosize=1;strokeColor=none;fillColor=none;" parent="1" vertex="1">
          <mxGeometry x="1306" y="1365" width="31" height="26" as="geometry" />
        </mxCell>
        <mxCell id="gD2HQ-bASogtjCP1hktm-3" style="edgeStyle=orthogonalEdgeStyle;rounded=0;orthogonalLoop=1;jettySize=auto;html=1;exitX=0.5;exitY=1;exitDx=0;exitDy=0;entryX=0.5;entryY=0;entryDx=0;entryDy=0;" edge="1" parent="1" source="gD2HQ-bASogtjCP1hktm-1" target="gD2HQ-bASogtjCP1hktm-2">
          <mxGeometry relative="1" as="geometry" />
        </mxCell>
        <mxCell id="gD2HQ-bASogtjCP1hktm-1" value="init autoData" style="rounded=0;whiteSpace=wrap;html=1;" vertex="1" parent="1">
          <mxGeometry x="1200.5" y="1547" width="120" height="60" as="geometry" />
        </mxCell>
        <mxCell id="gD2HQ-bASogtjCP1hktm-8" style="edgeStyle=orthogonalEdgeStyle;rounded=0;orthogonalLoop=1;jettySize=auto;html=1;exitX=0.5;exitY=1;exitDx=0;exitDy=0;entryX=0.5;entryY=0;entryDx=0;entryDy=0;" edge="1" parent="1" source="gD2HQ-bASogtjCP1hktm-2" target="gD2HQ-bASogtjCP1hktm-5">
          <mxGeometry relative="1" as="geometry" />
        </mxCell>
        <mxCell id="gD2HQ-bASogtjCP1hktm-2" value="autoData.loadFromBinary(db)" style="shape=process;whiteSpace=wrap;html=1;backgroundOutline=1;" vertex="1" parent="1">
          <mxGeometry x="1155.25" y="1635" width="204.5" height="60" as="geometry" />
        </mxCell>
        <mxCell id="gD2HQ-bASogtjCP1hktm-4" value="yes" style="text;html=1;align=center;verticalAlign=middle;resizable=0;points=[];autosize=1;strokeColor=none;fillColor=none;" vertex="1" parent="1">
          <mxGeometry x="1260" y="1512" width="37" height="26" as="geometry" />
        </mxCell>
        <mxCell id="gD2HQ-bASogtjCP1hktm-6" style="edgeStyle=orthogonalEdgeStyle;rounded=0;orthogonalLoop=1;jettySize=auto;html=1;entryX=0.5;entryY=0;entryDx=0;entryDy=0;exitX=1;exitY=0.5;exitDx=0;exitDy=0;" edge="1" parent="1" source="gD2HQ-bASogtjCP1hktm-5" target="gD2HQ-bASogtjCP1hktm-15">
          <mxGeometry relative="1" as="geometry">
            <Array as="points">
              <mxPoint x="1367" y="1742" />
            </Array>
          </mxGeometry>
        </mxCell>
        <mxCell id="gD2HQ-bASogtjCP1hktm-7" value="no" style="edgeLabel;html=1;align=center;verticalAlign=middle;resizable=0;points=[];" vertex="1" connectable="0" parent="gD2HQ-bASogtjCP1hktm-6">
          <mxGeometry x="-0.4634" relative="1" as="geometry">
            <mxPoint x="-94" y="7" as="offset" />
          </mxGeometry>
        </mxCell>
        <mxCell id="gD2HQ-bASogtjCP1hktm-10" style="edgeStyle=orthogonalEdgeStyle;rounded=0;orthogonalLoop=1;jettySize=auto;html=1;exitX=0;exitY=0.5;exitDx=0;exitDy=0;entryX=0.5;entryY=0;entryDx=0;entryDy=0;" edge="1" parent="1" source="gD2HQ-bASogtjCP1hktm-5" target="gD2HQ-bASogtjCP1hktm-9">
          <mxGeometry relative="1" as="geometry" />
        </mxCell>
        <mxCell id="gD2HQ-bASogtjCP1hktm-5" value="db has something?" style="rhombus;whiteSpace=wrap;html=1;" vertex="1" parent="1">
          <mxGeometry x="1178" y="1720" width="164" height="45" as="geometry" />
        </mxCell>
        <mxCell id="gD2HQ-bASogtjCP1hktm-43" style="edgeStyle=orthogonalEdgeStyle;rounded=0;orthogonalLoop=1;jettySize=auto;html=1;exitX=1;exitY=0.5;exitDx=0;exitDy=0;entryX=0;entryY=0.5;entryDx=0;entryDy=0;" edge="1" parent="1" source="gD2HQ-bASogtjCP1hktm-9" target="vlrHRavP4iwQakqAyyEH-181">
          <mxGeometry relative="1" as="geometry">
            <Array as="points">
              <mxPoint x="1269" y="1979" />
              <mxPoint x="931" y="1979" />
              <mxPoint x="931" y="1478" />
            </Array>
          </mxGeometry>
        </mxCell>
        <mxCell id="gD2HQ-bASogtjCP1hktm-9" value="year of autoData &amp;gt;= year" style="rhombus;whiteSpace=wrap;html=1;" vertex="1" parent="1">
          <mxGeometry x="1044" y="1796" width="225.5" height="45" as="geometry" />
        </mxCell>
        <mxCell id="gD2HQ-bASogtjCP1hktm-11" value="yes" style="text;html=1;align=center;verticalAlign=middle;resizable=0;points=[];autosize=1;strokeColor=none;fillColor=none;" vertex="1" parent="1">
          <mxGeometry x="1144" y="1711" width="37" height="26" as="geometry" />
        </mxCell>
        <mxCell id="gD2HQ-bASogtjCP1hktm-18" style="edgeStyle=orthogonalEdgeStyle;rounded=0;orthogonalLoop=1;jettySize=auto;html=1;entryX=0;entryY=0.5;entryDx=0;entryDy=0;" edge="1" parent="1" source="gD2HQ-bASogtjCP1hktm-12" target="vlrHRavP4iwQakqAyyEH-181">
          <mxGeometry relative="1" as="geometry">
            <Array as="points">
              <mxPoint x="930" y="1905" />
              <mxPoint x="930" y="1478" />
            </Array>
          </mxGeometry>
        </mxCell>
        <mxCell id="gD2HQ-bASogtjCP1hktm-12" value="autoData.saveToBinary(temp)" style="shape=process;whiteSpace=wrap;html=1;backgroundOutline=1;" vertex="1" parent="1">
          <mxGeometry x="967" y="1877" width="214" height="60" as="geometry" />
        </mxCell>
        <mxCell id="gD2HQ-bASogtjCP1hktm-14" value="yes" style="text;html=1;align=center;verticalAlign=middle;resizable=0;points=[];autosize=1;strokeColor=none;fillColor=none;" vertex="1" parent="1">
          <mxGeometry x="1009" y="1787" width="37" height="26" as="geometry" />
        </mxCell>
        <mxCell id="gD2HQ-bASogtjCP1hktm-194" style="edgeStyle=orthogonalEdgeStyle;rounded=0;orthogonalLoop=1;jettySize=auto;html=1;exitX=0.5;exitY=1;exitDx=0;exitDy=0;entryX=0.5;entryY=0;entryDx=0;entryDy=0;" edge="1" parent="1" source="gD2HQ-bASogtjCP1hktm-15" target="gD2HQ-bASogtjCP1hktm-179">
          <mxGeometry relative="1" as="geometry" />
        </mxCell>
        <mxCell id="gD2HQ-bASogtjCP1hktm-15" value="temp.close()&lt;div&gt;db.close()&lt;/div&gt;" style="rounded=0;whiteSpace=wrap;html=1;" vertex="1" parent="1">
          <mxGeometry x="1307" y="2023" width="120" height="60" as="geometry" />
        </mxCell>
        <mxCell id="gD2HQ-bASogtjCP1hktm-188" style="edgeStyle=orthogonalEdgeStyle;rounded=0;orthogonalLoop=1;jettySize=auto;html=1;exitX=0.5;exitY=1;exitDx=0;exitDy=0;entryX=0.5;entryY=0;entryDx=0;entryDy=0;" edge="1" parent="1" source="gD2HQ-bASogtjCP1hktm-16" target="gD2HQ-bASogtjCP1hktm-187">
          <mxGeometry relative="1" as="geometry" />
        </mxCell>
        <mxCell id="gD2HQ-bASogtjCP1hktm-16" value="delete db file&lt;div&gt;rename db1 file to db name&lt;/div&gt;" style="rounded=0;whiteSpace=wrap;html=1;" vertex="1" parent="1">
          <mxGeometry x="3302" y="685" width="120" height="60" as="geometry" />
        </mxCell>
        <mxCell id="gD2HQ-bASogtjCP1hktm-17" value="return this" style="ellipse;whiteSpace=wrap;html=1;" vertex="1" parent="1">
          <mxGeometry x="1307" y="2203" width="120" height="80" as="geometry" />
        </mxCell>
        <mxCell id="gD2HQ-bASogtjCP1hktm-21" value="return;" style="ellipse;whiteSpace=wrap;html=1;" vertex="1" parent="1">
          <mxGeometry x="1803" y="525" width="120" height="80" as="geometry" />
        </mxCell>
        <mxCell id="gD2HQ-bASogtjCP1hktm-23" value="return;" style="ellipse;whiteSpace=wrap;html=1;" vertex="1" parent="1">
          <mxGeometry x="2457" y="554" width="88" height="60" as="geometry" />
        </mxCell>
        <mxCell id="gD2HQ-bASogtjCP1hktm-29" value="return;" style="ellipse;whiteSpace=wrap;html=1;" vertex="1" parent="1">
          <mxGeometry x="2472.5" y="917" width="120" height="80" as="geometry" />
        </mxCell>
        <mxCell id="gD2HQ-bASogtjCP1hktm-33" value="return;" style="ellipse;whiteSpace=wrap;html=1;" vertex="1" parent="1">
          <mxGeometry x="1839" y="1070" width="120" height="80" as="geometry" />
        </mxCell>
        <mxCell id="gD2HQ-bASogtjCP1hktm-35" value="return;" style="ellipse;whiteSpace=wrap;html=1;" vertex="1" parent="1">
          <mxGeometry x="1197" y="509" width="85" height="56" as="geometry" />
        </mxCell>
        <mxCell id="gD2HQ-bASogtjCP1hktm-39" value="return;" style="ellipse;whiteSpace=wrap;html=1;" vertex="1" parent="1">
          <mxGeometry x="949" y="799" width="85" height="56" as="geometry" />
        </mxCell>
        <mxCell id="gD2HQ-bASogtjCP1hktm-44" value="no" style="text;html=1;align=center;verticalAlign=middle;resizable=0;points=[];autosize=1;strokeColor=none;fillColor=none;" vertex="1" parent="1">
          <mxGeometry x="1331" y="1707" width="31" height="26" as="geometry" />
        </mxCell>
        <mxCell id="gD2HQ-bASogtjCP1hktm-46" value="no" style="text;html=1;align=center;verticalAlign=middle;resizable=0;points=[];autosize=1;strokeColor=none;fillColor=none;" vertex="1" parent="1">
          <mxGeometry x="1348" y="1450" width="31" height="26" as="geometry" />
        </mxCell>
        <mxCell id="gD2HQ-bASogtjCP1hktm-47" value="DasAuto::outputAutos()" style="ellipse;whiteSpace=wrap;html=1;" vertex="1" parent="1">
          <mxGeometry x="1828.5" y="1241" width="176" height="80" as="geometry" />
        </mxCell>
        <mxCell id="gD2HQ-bASogtjCP1hktm-48" style="edgeStyle=orthogonalEdgeStyle;rounded=0;orthogonalLoop=1;jettySize=auto;html=1;exitX=0.5;exitY=1;exitDx=0;exitDy=0;entryX=0.5;entryY=0;entryDx=0;entryDy=0;" edge="1" parent="1" target="gD2HQ-bASogtjCP1hktm-52">
          <mxGeometry relative="1" as="geometry">
            <mxPoint x="1917" y="1321" as="sourcePoint" />
          </mxGeometry>
        </mxCell>
        <mxCell id="gD2HQ-bASogtjCP1hktm-51" style="edgeStyle=orthogonalEdgeStyle;rounded=0;orthogonalLoop=1;jettySize=auto;html=1;exitX=0.5;exitY=1;exitDx=0;exitDy=0;entryX=0.5;entryY=0;entryDx=0;entryDy=0;" edge="1" parent="1" source="gD2HQ-bASogtjCP1hktm-52">
          <mxGeometry relative="1" as="geometry">
            <mxPoint x="1916.5" y="1456" as="targetPoint" />
          </mxGeometry>
        </mxCell>
        <mxCell id="gD2HQ-bASogtjCP1hktm-52" value="open file db by path dbPath in&amp;nbsp; bin&amp;nbsp;&lt;div&gt;read mode&lt;/div&gt;" style="rounded=0;whiteSpace=wrap;html=1;" vertex="1" parent="1">
          <mxGeometry x="1857" y="1363" width="120" height="60" as="geometry" />
        </mxCell>
        <mxCell id="gD2HQ-bASogtjCP1hktm-53" style="edgeStyle=orthogonalEdgeStyle;rounded=0;orthogonalLoop=1;jettySize=auto;html=1;exitX=0.5;exitY=1;exitDx=0;exitDy=0;entryX=0.5;entryY=0;entryDx=0;entryDy=0;" edge="1" parent="1" source="gD2HQ-bASogtjCP1hktm-54" target="gD2HQ-bASogtjCP1hktm-56">
          <mxGeometry relative="1" as="geometry" />
        </mxCell>
        <mxCell id="gD2HQ-bASogtjCP1hktm-62" style="edgeStyle=orthogonalEdgeStyle;rounded=0;orthogonalLoop=1;jettySize=auto;html=1;exitX=1;exitY=0.5;exitDx=0;exitDy=0;entryX=0.5;entryY=0;entryDx=0;entryDy=0;" edge="1" parent="1" source="gD2HQ-bASogtjCP1hktm-54" target="gD2HQ-bASogtjCP1hktm-60">
          <mxGeometry relative="1" as="geometry" />
        </mxCell>
        <mxCell id="gD2HQ-bASogtjCP1hktm-54" value="&amp;nbsp;cant open file" style="rhombus;whiteSpace=wrap;html=1;" vertex="1" parent="1">
          <mxGeometry x="1834.5" y="1456" width="165" height="80" as="geometry" />
        </mxCell>
        <mxCell id="gD2HQ-bASogtjCP1hktm-64" style="edgeStyle=orthogonalEdgeStyle;rounded=0;orthogonalLoop=1;jettySize=auto;html=1;exitX=0.5;exitY=1;exitDx=0;exitDy=0;entryX=0.5;entryY=0;entryDx=0;entryDy=0;" edge="1" parent="1" source="gD2HQ-bASogtjCP1hktm-56" target="gD2HQ-bASogtjCP1hktm-60">
          <mxGeometry relative="1" as="geometry" />
        </mxCell>
        <mxCell id="gD2HQ-bASogtjCP1hktm-56" value="file error" style="shape=parallelogram;perimeter=parallelogramPerimeter;whiteSpace=wrap;html=1;fixedSize=1;" vertex="1" parent="1">
          <mxGeometry x="1857.5" y="1563" width="120" height="60" as="geometry" />
        </mxCell>
        <mxCell id="gD2HQ-bASogtjCP1hktm-58" value="yes" style="text;html=1;align=center;verticalAlign=middle;resizable=0;points=[];autosize=1;strokeColor=none;fillColor=none;" vertex="1" parent="1">
          <mxGeometry x="1942.5" y="1520" width="37" height="26" as="geometry" />
        </mxCell>
        <mxCell id="gD2HQ-bASogtjCP1hktm-91" style="edgeStyle=orthogonalEdgeStyle;rounded=0;orthogonalLoop=1;jettySize=auto;html=1;exitX=1;exitY=0.5;exitDx=0;exitDy=0;entryX=0;entryY=0.5;entryDx=0;entryDy=0;" edge="1" parent="1" source="gD2HQ-bASogtjCP1hktm-60" target="gD2HQ-bASogtjCP1hktm-90">
          <mxGeometry relative="1" as="geometry" />
        </mxCell>
        <mxCell id="gD2HQ-bASogtjCP1hktm-60" value="db has something" style="rhombus;whiteSpace=wrap;html=1;" vertex="1" parent="1">
          <mxGeometry x="1981" y="1668.82" width="141" height="80" as="geometry" />
        </mxCell>
        <mxCell id="gD2HQ-bASogtjCP1hktm-61" value="no" style="text;html=1;align=center;verticalAlign=middle;resizable=0;points=[];autosize=1;strokeColor=none;fillColor=none;" vertex="1" parent="1">
          <mxGeometry x="2139" y="1681" width="31" height="26" as="geometry" />
        </mxCell>
        <mxCell id="gD2HQ-bASogtjCP1hktm-63" value="no" style="text;html=1;align=center;verticalAlign=middle;resizable=0;points=[];autosize=1;strokeColor=none;fillColor=none;" vertex="1" parent="1">
          <mxGeometry x="2021" y="1465" width="31" height="26" as="geometry" />
        </mxCell>
        <mxCell id="gD2HQ-bASogtjCP1hktm-65" style="edgeStyle=orthogonalEdgeStyle;rounded=0;orthogonalLoop=1;jettySize=auto;html=1;exitX=0.5;exitY=1;exitDx=0;exitDy=0;" edge="1" parent="1" source="gD2HQ-bASogtjCP1hktm-60">
          <mxGeometry relative="1" as="geometry">
            <mxPoint x="2050.931818181818" y="1781.001818181818" as="targetPoint" />
            <mxPoint x="2051.75" y="1752" as="sourcePoint" />
          </mxGeometry>
        </mxCell>
        <mxCell id="gD2HQ-bASogtjCP1hktm-66" style="edgeStyle=orthogonalEdgeStyle;rounded=0;orthogonalLoop=1;jettySize=auto;html=1;exitX=0.5;exitY=1;exitDx=0;exitDy=0;entryX=0.5;entryY=0;entryDx=0;entryDy=0;" edge="1" parent="1" source="gD2HQ-bASogtjCP1hktm-67" target="gD2HQ-bASogtjCP1hktm-69">
          <mxGeometry relative="1" as="geometry" />
        </mxCell>
        <mxCell id="gD2HQ-bASogtjCP1hktm-67" value="init autoData" style="rounded=0;whiteSpace=wrap;html=1;" vertex="1" parent="1">
          <mxGeometry x="1991.25" y="1781" width="120" height="60" as="geometry" />
        </mxCell>
        <mxCell id="gD2HQ-bASogtjCP1hktm-68" style="edgeStyle=orthogonalEdgeStyle;rounded=0;orthogonalLoop=1;jettySize=auto;html=1;exitX=0.5;exitY=1;exitDx=0;exitDy=0;entryX=0.5;entryY=0;entryDx=0;entryDy=0;" edge="1" parent="1" source="gD2HQ-bASogtjCP1hktm-69" target="gD2HQ-bASogtjCP1hktm-72">
          <mxGeometry relative="1" as="geometry" />
        </mxCell>
        <mxCell id="gD2HQ-bASogtjCP1hktm-69" value="autoData.loadFromBinary(db)" style="shape=process;whiteSpace=wrap;html=1;backgroundOutline=1;" vertex="1" parent="1">
          <mxGeometry x="1946" y="1869" width="204.5" height="60" as="geometry" />
        </mxCell>
        <mxCell id="gD2HQ-bASogtjCP1hktm-70" value="yes" style="text;html=1;align=center;verticalAlign=middle;resizable=0;points=[];autosize=1;strokeColor=none;fillColor=none;" vertex="1" parent="1">
          <mxGeometry x="2060" y="1746" width="37" height="26" as="geometry" />
        </mxCell>
        <mxCell id="gD2HQ-bASogtjCP1hktm-71" value="no" style="edgeLabel;html=1;align=center;verticalAlign=middle;resizable=0;points=[];" vertex="1" connectable="0" parent="1">
          <mxGeometry x="1956.8088235294117" y="1960.0692810457513" as="geometry" />
        </mxCell>
        <mxCell id="gD2HQ-bASogtjCP1hktm-75" style="edgeStyle=orthogonalEdgeStyle;rounded=0;orthogonalLoop=1;jettySize=auto;html=1;exitX=1;exitY=0.5;exitDx=0;exitDy=0;" edge="1" parent="1" source="gD2HQ-bASogtjCP1hktm-72" target="gD2HQ-bASogtjCP1hktm-74">
          <mxGeometry relative="1" as="geometry" />
        </mxCell>
        <mxCell id="gD2HQ-bASogtjCP1hktm-72" value="db has something?" style="rhombus;whiteSpace=wrap;html=1;" vertex="1" parent="1">
          <mxGeometry x="1968.75" y="1954" width="164" height="45" as="geometry" />
        </mxCell>
        <mxCell id="gD2HQ-bASogtjCP1hktm-73" value="yes" style="text;html=1;align=center;verticalAlign=middle;resizable=0;points=[];autosize=1;strokeColor=none;fillColor=none;" vertex="1" parent="1">
          <mxGeometry x="2137" y="1954" width="37" height="26" as="geometry" />
        </mxCell>
        <mxCell id="gD2HQ-bASogtjCP1hktm-82" style="edgeStyle=orthogonalEdgeStyle;rounded=0;orthogonalLoop=1;jettySize=auto;html=1;exitX=0.5;exitY=1;exitDx=0;exitDy=0;entryX=0.5;entryY=0;entryDx=0;entryDy=0;" edge="1" parent="1" source="gD2HQ-bASogtjCP1hktm-74" target="gD2HQ-bASogtjCP1hktm-76">
          <mxGeometry relative="1" as="geometry" />
        </mxCell>
        <mxCell id="gD2HQ-bASogtjCP1hktm-74" value=":::::::Auto:::::::\nbrand:&amp;nbsp;&lt;div&gt;&lt;div&gt;&amp;lt;&amp;lt; autoData.brand&lt;/div&gt;&lt;div&gt;&amp;nbsp; &amp;nbsp; &amp;lt;&amp;lt; &quot;\ncolors: &quot;&lt;/div&gt;&lt;/div&gt;" style="shape=parallelogram;perimeter=parallelogramPerimeter;whiteSpace=wrap;html=1;fixedSize=1;" vertex="1" parent="1">
          <mxGeometry x="2111.25" y="2035" width="162.75" height="60" as="geometry" />
        </mxCell>
        <mxCell id="gD2HQ-bASogtjCP1hktm-79" style="edgeStyle=orthogonalEdgeStyle;rounded=0;orthogonalLoop=1;jettySize=auto;html=1;exitX=0;exitY=0.5;exitDx=0;exitDy=0;entryX=0.5;entryY=0;entryDx=0;entryDy=0;" edge="1" parent="1" source="gD2HQ-bASogtjCP1hktm-76" target="gD2HQ-bASogtjCP1hktm-77">
          <mxGeometry relative="1" as="geometry" />
        </mxCell>
        <mxCell id="gD2HQ-bASogtjCP1hktm-85" style="edgeStyle=orthogonalEdgeStyle;rounded=0;orthogonalLoop=1;jettySize=auto;html=1;exitX=1;exitY=0.5;exitDx=0;exitDy=0;entryX=0.5;entryY=0;entryDx=0;entryDy=0;" edge="1" parent="1" source="gD2HQ-bASogtjCP1hktm-76" target="gD2HQ-bASogtjCP1hktm-83">
          <mxGeometry relative="1" as="geometry" />
        </mxCell>
        <mxCell id="gD2HQ-bASogtjCP1hktm-76" value="for each color in autoData.colors" style="rhombus;whiteSpace=wrap;html=1;" vertex="1" parent="1">
          <mxGeometry x="2068.12" y="2122.5" width="249" height="53" as="geometry" />
        </mxCell>
        <mxCell id="gD2HQ-bASogtjCP1hktm-81" style="edgeStyle=orthogonalEdgeStyle;rounded=0;orthogonalLoop=1;jettySize=auto;html=1;exitX=0.5;exitY=1;exitDx=0;exitDy=0;entryX=0.5;entryY=1;entryDx=0;entryDy=0;" edge="1" parent="1" source="gD2HQ-bASogtjCP1hktm-77" target="gD2HQ-bASogtjCP1hktm-76">
          <mxGeometry relative="1" as="geometry" />
        </mxCell>
        <mxCell id="gD2HQ-bASogtjCP1hktm-77" value="color" style="shape=parallelogram;perimeter=parallelogramPerimeter;whiteSpace=wrap;html=1;fixedSize=1;" vertex="1" parent="1">
          <mxGeometry x="1988.25" y="2203" width="120" height="42" as="geometry" />
        </mxCell>
        <mxCell id="gD2HQ-bASogtjCP1hktm-80" value="yes" style="text;html=1;align=center;verticalAlign=middle;resizable=0;points=[];autosize=1;strokeColor=none;fillColor=none;" vertex="1" parent="1">
          <mxGeometry x="2034" y="2113" width="37" height="26" as="geometry" />
        </mxCell>
        <mxCell id="gD2HQ-bASogtjCP1hktm-89" style="edgeStyle=orthogonalEdgeStyle;rounded=0;orthogonalLoop=1;jettySize=auto;html=1;entryX=0;entryY=0.5;entryDx=0;entryDy=0;" edge="1" parent="1" source="gD2HQ-bASogtjCP1hktm-83" target="gD2HQ-bASogtjCP1hktm-60">
          <mxGeometry relative="1" as="geometry">
            <Array as="points">
              <mxPoint x="2405" y="2306" />
              <mxPoint x="1914" y="2306" />
              <mxPoint x="1914" y="1709" />
            </Array>
          </mxGeometry>
        </mxCell>
        <mxCell id="gD2HQ-bASogtjCP1hktm-83" value="&lt;div&gt;&quot;\nyear: &quot; &amp;lt;&amp;lt; autoData.year&lt;/div&gt;&lt;div&gt;&amp;nbsp; &amp;nbsp; &amp;nbsp; &amp;nbsp; &amp;nbsp;&amp;lt;&amp;lt; &quot;\nprice: &quot; &amp;lt;&amp;lt; autoData.price&lt;/div&gt;" style="shape=parallelogram;perimeter=parallelogramPerimeter;whiteSpace=wrap;html=1;fixedSize=1;" vertex="1" parent="1">
          <mxGeometry x="2307" y="2205" width="195" height="72" as="geometry" />
        </mxCell>
        <mxCell id="gD2HQ-bASogtjCP1hktm-86" value="no" style="text;html=1;align=center;verticalAlign=middle;resizable=0;points=[];autosize=1;strokeColor=none;fillColor=none;" vertex="1" parent="1">
          <mxGeometry x="2362" y="2123" width="31" height="26" as="geometry" />
        </mxCell>
        <mxCell id="gD2HQ-bASogtjCP1hktm-88" style="edgeStyle=orthogonalEdgeStyle;rounded=0;orthogonalLoop=1;jettySize=auto;html=1;exitX=0;exitY=0.5;exitDx=0;exitDy=0;entryX=0.25;entryY=0;entryDx=0;entryDy=0;" edge="1" parent="1" source="gD2HQ-bASogtjCP1hktm-9" target="gD2HQ-bASogtjCP1hktm-12">
          <mxGeometry relative="1" as="geometry" />
        </mxCell>
        <mxCell id="gD2HQ-bASogtjCP1hktm-93" style="edgeStyle=orthogonalEdgeStyle;rounded=0;orthogonalLoop=1;jettySize=auto;html=1;exitX=0.5;exitY=1;exitDx=0;exitDy=0;" edge="1" parent="1" source="gD2HQ-bASogtjCP1hktm-90" target="gD2HQ-bASogtjCP1hktm-92">
          <mxGeometry relative="1" as="geometry" />
        </mxCell>
        <mxCell id="gD2HQ-bASogtjCP1hktm-90" value="db.close()" style="whiteSpace=wrap;html=1;" vertex="1" parent="1">
          <mxGeometry x="2217" y="1678.82" width="120" height="60" as="geometry" />
        </mxCell>
        <mxCell id="gD2HQ-bASogtjCP1hktm-92" value="return this" style="ellipse;whiteSpace=wrap;html=1;" vertex="1" parent="1">
          <mxGeometry x="2217" y="1789" width="120" height="80" as="geometry" />
        </mxCell>
        <mxCell id="gD2HQ-bASogtjCP1hktm-97" style="edgeStyle=orthogonalEdgeStyle;rounded=0;orthogonalLoop=1;jettySize=auto;html=1;exitX=0.5;exitY=1;exitDx=0;exitDy=0;entryX=0.5;entryY=0;entryDx=0;entryDy=0;" edge="1" parent="1" source="gD2HQ-bASogtjCP1hktm-95" target="gD2HQ-bASogtjCP1hktm-96">
          <mxGeometry relative="1" as="geometry" />
        </mxCell>
        <mxCell id="gD2HQ-bASogtjCP1hktm-95" value="getBrand" style="ellipse;whiteSpace=wrap;html=1;" vertex="1" parent="1">
          <mxGeometry x="779" y="1041" width="120" height="80" as="geometry" />
        </mxCell>
        <mxCell id="gD2HQ-bASogtjCP1hktm-96" value="return this-&amp;gt;autoData.brand" style="ellipse;whiteSpace=wrap;html=1;" vertex="1" parent="1">
          <mxGeometry x="750.5" y="1141" width="177" height="80" as="geometry" />
        </mxCell>
        <mxCell id="gD2HQ-bASogtjCP1hktm-104" style="edgeStyle=orthogonalEdgeStyle;rounded=0;orthogonalLoop=1;jettySize=auto;html=1;exitX=0.5;exitY=1;exitDx=0;exitDy=0;entryX=0.5;entryY=0;entryDx=0;entryDy=0;" edge="1" parent="1" source="gD2HQ-bASogtjCP1hktm-98" target="gD2HQ-bASogtjCP1hktm-99">
          <mxGeometry relative="1" as="geometry" />
        </mxCell>
        <mxCell id="gD2HQ-bASogtjCP1hktm-98" value="DasAuto::deleteColors(string color, Colors... colors)" style="ellipse;whiteSpace=wrap;html=1;" vertex="1" parent="1">
          <mxGeometry x="2235" y="1072" width="226" height="80" as="geometry" />
        </mxCell>
        <mxCell id="gD2HQ-bASogtjCP1hktm-99" value="remove color from&amp;nbsp;this-&amp;gt;autoData.colors" style="rounded=0;whiteSpace=wrap;html=1;" vertex="1" parent="1">
          <mxGeometry x="2225.5" y="1181" width="245" height="60" as="geometry" />
        </mxCell>
        <mxCell id="gD2HQ-bASogtjCP1hktm-106" style="edgeStyle=orthogonalEdgeStyle;rounded=0;orthogonalLoop=1;jettySize=auto;html=1;exitX=0.5;exitY=1;exitDx=0;exitDy=0;entryX=0.5;entryY=0;entryDx=0;entryDy=0;" edge="1" parent="1" source="gD2HQ-bASogtjCP1hktm-102" target="gD2HQ-bASogtjCP1hktm-103">
          <mxGeometry relative="1" as="geometry" />
        </mxCell>
        <mxCell id="gD2HQ-bASogtjCP1hktm-102" value="a = deleteColors(colors...)" style="shape=process;whiteSpace=wrap;html=1;backgroundOutline=1;" vertex="1" parent="1">
          <mxGeometry x="2263" y="1268" width="170" height="60" as="geometry" />
        </mxCell>
        <mxCell id="gD2HQ-bASogtjCP1hktm-103" value="return a" style="ellipse;whiteSpace=wrap;html=1;" vertex="1" parent="1">
          <mxGeometry x="2288" y="1357.82" width="120" height="80" as="geometry" />
        </mxCell>
        <mxCell id="gD2HQ-bASogtjCP1hktm-105" style="edgeStyle=orthogonalEdgeStyle;rounded=0;orthogonalLoop=1;jettySize=auto;html=1;exitX=0.5;exitY=1;exitDx=0;exitDy=0;" edge="1" parent="1" source="gD2HQ-bASogtjCP1hktm-99" target="gD2HQ-bASogtjCP1hktm-102">
          <mxGeometry relative="1" as="geometry" />
        </mxCell>
        <mxCell id="gD2HQ-bASogtjCP1hktm-107" style="edgeStyle=orthogonalEdgeStyle;rounded=0;orthogonalLoop=1;jettySize=auto;html=1;exitX=0.5;exitY=1;exitDx=0;exitDy=0;entryX=0.5;entryY=0;entryDx=0;entryDy=0;" edge="1" parent="1" source="gD2HQ-bASogtjCP1hktm-108" target="gD2HQ-bASogtjCP1hktm-109">
          <mxGeometry relative="1" as="geometry" />
        </mxCell>
        <mxCell id="gD2HQ-bASogtjCP1hktm-108" value="DasAuto::deleteColors(string color)" style="ellipse;whiteSpace=wrap;html=1;" vertex="1" parent="1">
          <mxGeometry x="2505.5" y="1063.18" width="226" height="80" as="geometry" />
        </mxCell>
        <mxCell id="gD2HQ-bASogtjCP1hktm-109" value="remove color from&amp;nbsp;this-&amp;gt;autoData.colors" style="rounded=0;whiteSpace=wrap;html=1;" vertex="1" parent="1">
          <mxGeometry x="2496" y="1172.18" width="245" height="60" as="geometry" />
        </mxCell>
        <mxCell id="gD2HQ-bASogtjCP1hktm-112" value="return this" style="ellipse;whiteSpace=wrap;html=1;" vertex="1" parent="1">
          <mxGeometry x="2558.5" y="1258" width="120" height="80" as="geometry" />
        </mxCell>
        <mxCell id="gD2HQ-bASogtjCP1hktm-113" style="edgeStyle=orthogonalEdgeStyle;rounded=0;orthogonalLoop=1;jettySize=auto;html=1;exitX=0.5;exitY=1;exitDx=0;exitDy=0;" edge="1" parent="1" source="gD2HQ-bASogtjCP1hktm-109">
          <mxGeometry relative="1" as="geometry">
            <mxPoint x="2618.545454545454" y="1259.1800000000003" as="targetPoint" />
          </mxGeometry>
        </mxCell>
        <mxCell id="gD2HQ-bASogtjCP1hktm-114" style="edgeStyle=orthogonalEdgeStyle;rounded=0;orthogonalLoop=1;jettySize=auto;html=1;exitX=0.5;exitY=1;exitDx=0;exitDy=0;entryX=0.5;entryY=0;entryDx=0;entryDy=0;" edge="1" parent="1" source="gD2HQ-bASogtjCP1hktm-115" target="gD2HQ-bASogtjCP1hktm-116">
          <mxGeometry relative="1" as="geometry" />
        </mxCell>
        <mxCell id="gD2HQ-bASogtjCP1hktm-115" value="DasAuto::addColor(string color, Colors... colors)" style="ellipse;whiteSpace=wrap;html=1;" vertex="1" parent="1">
          <mxGeometry x="2805.5" y="1057.18" width="226" height="80" as="geometry" />
        </mxCell>
        <mxCell id="gD2HQ-bASogtjCP1hktm-116" value="add color to this-&amp;gt;autoData.colors" style="rounded=0;whiteSpace=wrap;html=1;" vertex="1" parent="1">
          <mxGeometry x="2796" y="1166.18" width="245" height="60" as="geometry" />
        </mxCell>
        <mxCell id="gD2HQ-bASogtjCP1hktm-117" style="edgeStyle=orthogonalEdgeStyle;rounded=0;orthogonalLoop=1;jettySize=auto;html=1;exitX=0.5;exitY=1;exitDx=0;exitDy=0;entryX=0.5;entryY=0;entryDx=0;entryDy=0;" edge="1" parent="1" source="gD2HQ-bASogtjCP1hktm-118" target="gD2HQ-bASogtjCP1hktm-119">
          <mxGeometry relative="1" as="geometry" />
        </mxCell>
        <mxCell id="gD2HQ-bASogtjCP1hktm-118" value="a = addColors(colors...)" style="shape=process;whiteSpace=wrap;html=1;backgroundOutline=1;" vertex="1" parent="1">
          <mxGeometry x="2833.5" y="1253.18" width="170" height="60" as="geometry" />
        </mxCell>
        <mxCell id="gD2HQ-bASogtjCP1hktm-119" value="return a" style="ellipse;whiteSpace=wrap;html=1;" vertex="1" parent="1">
          <mxGeometry x="2858.5" y="1343" width="120" height="80" as="geometry" />
        </mxCell>
        <mxCell id="gD2HQ-bASogtjCP1hktm-120" style="edgeStyle=orthogonalEdgeStyle;rounded=0;orthogonalLoop=1;jettySize=auto;html=1;exitX=0.5;exitY=1;exitDx=0;exitDy=0;" edge="1" parent="1" source="gD2HQ-bASogtjCP1hktm-116" target="gD2HQ-bASogtjCP1hktm-118">
          <mxGeometry relative="1" as="geometry" />
        </mxCell>
        <mxCell id="gD2HQ-bASogtjCP1hktm-121" style="edgeStyle=orthogonalEdgeStyle;rounded=0;orthogonalLoop=1;jettySize=auto;html=1;exitX=0.5;exitY=1;exitDx=0;exitDy=0;entryX=0.5;entryY=0;entryDx=0;entryDy=0;" edge="1" parent="1" source="gD2HQ-bASogtjCP1hktm-122" target="gD2HQ-bASogtjCP1hktm-123">
          <mxGeometry relative="1" as="geometry" />
        </mxCell>
        <mxCell id="gD2HQ-bASogtjCP1hktm-122" value="DasAuto::addColor(string color)" style="ellipse;whiteSpace=wrap;html=1;" vertex="1" parent="1">
          <mxGeometry x="3076" y="1048.3600000000001" width="226" height="80" as="geometry" />
        </mxCell>
        <mxCell id="gD2HQ-bASogtjCP1hktm-123" value="add color to this-&amp;gt;autoData.colors" style="rounded=0;whiteSpace=wrap;html=1;" vertex="1" parent="1">
          <mxGeometry x="3066.5" y="1157.3600000000001" width="245" height="60" as="geometry" />
        </mxCell>
        <mxCell id="gD2HQ-bASogtjCP1hktm-124" value="return this" style="ellipse;whiteSpace=wrap;html=1;" vertex="1" parent="1">
          <mxGeometry x="3129" y="1243.18" width="120" height="80" as="geometry" />
        </mxCell>
        <mxCell id="gD2HQ-bASogtjCP1hktm-125" style="edgeStyle=orthogonalEdgeStyle;rounded=0;orthogonalLoop=1;jettySize=auto;html=1;exitX=0.5;exitY=1;exitDx=0;exitDy=0;" edge="1" parent="1" source="gD2HQ-bASogtjCP1hktm-123">
          <mxGeometry relative="1" as="geometry">
            <mxPoint x="3189.045454545454" y="1244.3600000000004" as="targetPoint" />
          </mxGeometry>
        </mxCell>
        <mxCell id="gD2HQ-bASogtjCP1hktm-126" style="edgeStyle=orthogonalEdgeStyle;rounded=0;orthogonalLoop=1;jettySize=auto;html=1;exitX=0.5;exitY=1;exitDx=0;exitDy=0;entryX=0.5;entryY=0;entryDx=0;entryDy=0;" edge="1" parent="1" source="gD2HQ-bASogtjCP1hktm-127" target="gD2HQ-bASogtjCP1hktm-128">
          <mxGeometry relative="1" as="geometry" />
        </mxCell>
        <mxCell id="gD2HQ-bASogtjCP1hktm-127" value="DasAuto::changeBrand(string data)" style="ellipse;whiteSpace=wrap;html=1;" vertex="1" parent="1">
          <mxGeometry x="2480" y="1533" width="226" height="80" as="geometry" />
        </mxCell>
        <mxCell id="gD2HQ-bASogtjCP1hktm-128" value="&amp;nbsp;this-&amp;gt;autoData.brand = data" style="rounded=0;whiteSpace=wrap;html=1;" vertex="1" parent="1">
          <mxGeometry x="2470.5" y="1642" width="245" height="60" as="geometry" />
        </mxCell>
        <mxCell id="gD2HQ-bASogtjCP1hktm-129" value="return this" style="ellipse;whiteSpace=wrap;html=1;" vertex="1" parent="1">
          <mxGeometry x="2533" y="1727.8200000000002" width="120" height="80" as="geometry" />
        </mxCell>
        <mxCell id="gD2HQ-bASogtjCP1hktm-130" style="edgeStyle=orthogonalEdgeStyle;rounded=0;orthogonalLoop=1;jettySize=auto;html=1;exitX=0.5;exitY=1;exitDx=0;exitDy=0;" edge="1" parent="1" source="gD2HQ-bASogtjCP1hktm-128">
          <mxGeometry relative="1" as="geometry">
            <mxPoint x="2593.045454545454" y="1729.0000000000005" as="targetPoint" />
          </mxGeometry>
        </mxCell>
        <mxCell id="gD2HQ-bASogtjCP1hktm-131" style="edgeStyle=orthogonalEdgeStyle;rounded=0;orthogonalLoop=1;jettySize=auto;html=1;exitX=0.5;exitY=1;exitDx=0;exitDy=0;entryX=0.5;entryY=0;entryDx=0;entryDy=0;" edge="1" parent="1" source="gD2HQ-bASogtjCP1hktm-132" target="gD2HQ-bASogtjCP1hktm-133">
          <mxGeometry relative="1" as="geometry" />
        </mxCell>
        <mxCell id="gD2HQ-bASogtjCP1hktm-132" value="DasAuto::changePrice(int data)" style="ellipse;whiteSpace=wrap;html=1;" vertex="1" parent="1">
          <mxGeometry x="2768" y="1527.59" width="226" height="80" as="geometry" />
        </mxCell>
        <mxCell id="gD2HQ-bASogtjCP1hktm-133" value="&amp;nbsp;this-&amp;gt;autoData.price = data" style="rounded=0;whiteSpace=wrap;html=1;" vertex="1" parent="1">
          <mxGeometry x="2758.5" y="1636.59" width="245" height="60" as="geometry" />
        </mxCell>
        <mxCell id="gD2HQ-bASogtjCP1hktm-134" value="return this" style="ellipse;whiteSpace=wrap;html=1;" vertex="1" parent="1">
          <mxGeometry x="2821" y="1722.41" width="120" height="80" as="geometry" />
        </mxCell>
        <mxCell id="gD2HQ-bASogtjCP1hktm-135" style="edgeStyle=orthogonalEdgeStyle;rounded=0;orthogonalLoop=1;jettySize=auto;html=1;exitX=0.5;exitY=1;exitDx=0;exitDy=0;" edge="1" parent="1" source="gD2HQ-bASogtjCP1hktm-133">
          <mxGeometry relative="1" as="geometry">
            <mxPoint x="2881.045454545454" y="1723.5900000000004" as="targetPoint" />
          </mxGeometry>
        </mxCell>
        <mxCell id="gD2HQ-bASogtjCP1hktm-136" style="edgeStyle=orthogonalEdgeStyle;rounded=0;orthogonalLoop=1;jettySize=auto;html=1;exitX=0.5;exitY=1;exitDx=0;exitDy=0;entryX=0.5;entryY=0;entryDx=0;entryDy=0;" edge="1" parent="1" source="gD2HQ-bASogtjCP1hktm-137" target="gD2HQ-bASogtjCP1hktm-138">
          <mxGeometry relative="1" as="geometry" />
        </mxCell>
        <mxCell id="gD2HQ-bASogtjCP1hktm-137" value="DasAuto::changeYear(int data)" style="ellipse;whiteSpace=wrap;html=1;" vertex="1" parent="1">
          <mxGeometry x="3048.5" y="1524" width="226" height="80" as="geometry" />
        </mxCell>
        <mxCell id="gD2HQ-bASogtjCP1hktm-138" value="&amp;nbsp;this-&amp;gt;autoData.year = data" style="rounded=0;whiteSpace=wrap;html=1;" vertex="1" parent="1">
          <mxGeometry x="3039" y="1633" width="245" height="60" as="geometry" />
        </mxCell>
        <mxCell id="gD2HQ-bASogtjCP1hktm-139" value="return this" style="ellipse;whiteSpace=wrap;html=1;" vertex="1" parent="1">
          <mxGeometry x="3101.5" y="1718.8200000000002" width="120" height="80" as="geometry" />
        </mxCell>
        <mxCell id="gD2HQ-bASogtjCP1hktm-140" style="edgeStyle=orthogonalEdgeStyle;rounded=0;orthogonalLoop=1;jettySize=auto;html=1;exitX=0.5;exitY=1;exitDx=0;exitDy=0;" edge="1" parent="1" source="gD2HQ-bASogtjCP1hktm-138">
          <mxGeometry relative="1" as="geometry">
            <mxPoint x="3161.545454545454" y="1720.0000000000005" as="targetPoint" />
          </mxGeometry>
        </mxCell>
        <mxCell id="gD2HQ-bASogtjCP1hktm-190" style="edgeStyle=orthogonalEdgeStyle;rounded=0;orthogonalLoop=1;jettySize=auto;html=1;exitX=0.5;exitY=1;exitDx=0;exitDy=0;entryX=0.5;entryY=0;entryDx=0;entryDy=0;" edge="1" parent="1" source="gD2HQ-bASogtjCP1hktm-141" target="gD2HQ-bASogtjCP1hktm-142">
          <mxGeometry relative="1" as="geometry" />
        </mxCell>
        <mxCell id="gD2HQ-bASogtjCP1hktm-141" value="saveAuto()" style="ellipse;whiteSpace=wrap;html=1;" vertex="1" parent="1">
          <mxGeometry x="3372" y="-148" width="120" height="80" as="geometry" />
        </mxCell>
        <mxCell id="gD2HQ-bASogtjCP1hktm-145" style="edgeStyle=orthogonalEdgeStyle;rounded=0;orthogonalLoop=1;jettySize=auto;html=1;exitX=1;exitY=0.5;exitDx=0;exitDy=0;entryX=0.5;entryY=0;entryDx=0;entryDy=0;" edge="1" parent="1" source="gD2HQ-bASogtjCP1hktm-142" target="gD2HQ-bASogtjCP1hktm-144">
          <mxGeometry relative="1" as="geometry" />
        </mxCell>
        <mxCell id="gD2HQ-bASogtjCP1hktm-191" style="edgeStyle=orthogonalEdgeStyle;rounded=0;orthogonalLoop=1;jettySize=auto;html=1;exitX=0;exitY=0.5;exitDx=0;exitDy=0;" edge="1" parent="1" source="gD2HQ-bASogtjCP1hktm-142" target="gD2HQ-bASogtjCP1hktm-187">
          <mxGeometry relative="1" as="geometry" />
        </mxCell>
        <mxCell id="gD2HQ-bASogtjCP1hktm-142" value="!delete_flag" style="rhombus;whiteSpace=wrap;html=1;" vertex="1" parent="1">
          <mxGeometry x="3357" y="-36" width="150" height="80" as="geometry" />
        </mxCell>
        <mxCell id="gD2HQ-bASogtjCP1hktm-148" style="edgeStyle=orthogonalEdgeStyle;rounded=0;orthogonalLoop=1;jettySize=auto;html=1;exitX=0.5;exitY=1;exitDx=0;exitDy=0;" edge="1" parent="1" source="gD2HQ-bASogtjCP1hktm-144" target="gD2HQ-bASogtjCP1hktm-147">
          <mxGeometry relative="1" as="geometry" />
        </mxCell>
        <mxCell id="gD2HQ-bASogtjCP1hktm-144" value="open file db by path dbPath in&amp;nbsp; write&amp;nbsp;&lt;div&gt;read mode&lt;/div&gt;" style="rounded=0;whiteSpace=wrap;html=1;" vertex="1" parent="1">
          <mxGeometry x="3501" y="84" width="120" height="60" as="geometry" />
        </mxCell>
        <mxCell id="gD2HQ-bASogtjCP1hktm-146" value="yes" style="text;html=1;align=center;verticalAlign=middle;resizable=0;points=[];autosize=1;strokeColor=none;fillColor=none;" vertex="1" parent="1">
          <mxGeometry x="3521" y="-37" width="37" height="26" as="geometry" />
        </mxCell>
        <mxCell id="gD2HQ-bASogtjCP1hktm-153" style="edgeStyle=orthogonalEdgeStyle;rounded=0;orthogonalLoop=1;jettySize=auto;html=1;exitX=1;exitY=0.5;exitDx=0;exitDy=0;" edge="1" parent="1" source="gD2HQ-bASogtjCP1hktm-147" target="gD2HQ-bASogtjCP1hktm-151">
          <mxGeometry relative="1" as="geometry" />
        </mxCell>
        <mxCell id="gD2HQ-bASogtjCP1hktm-157" style="edgeStyle=orthogonalEdgeStyle;rounded=0;orthogonalLoop=1;jettySize=auto;html=1;exitX=0;exitY=0.5;exitDx=0;exitDy=0;" edge="1" parent="1" source="gD2HQ-bASogtjCP1hktm-147" target="gD2HQ-bASogtjCP1hktm-156">
          <mxGeometry relative="1" as="geometry" />
        </mxCell>
        <mxCell id="gD2HQ-bASogtjCP1hktm-147" value="!db.is_open?" style="rhombus;whiteSpace=wrap;html=1;" vertex="1" parent="1">
          <mxGeometry x="3450.5" y="171" width="221" height="80" as="geometry" />
        </mxCell>
        <mxCell id="gD2HQ-bASogtjCP1hktm-150" style="edgeStyle=orthogonalEdgeStyle;rounded=0;orthogonalLoop=1;jettySize=auto;html=1;" edge="1" parent="1" source="gD2HQ-bASogtjCP1hktm-151" target="gD2HQ-bASogtjCP1hktm-152">
          <mxGeometry relative="1" as="geometry" />
        </mxCell>
        <mxCell id="gD2HQ-bASogtjCP1hktm-151" value="file error" style="shape=parallelogram;perimeter=parallelogramPerimeter;whiteSpace=wrap;html=1;fixedSize=1;" vertex="1" parent="1">
          <mxGeometry x="3665" y="272" width="120" height="60" as="geometry" />
        </mxCell>
        <mxCell id="gD2HQ-bASogtjCP1hktm-152" value="return;" style="ellipse;whiteSpace=wrap;html=1;" vertex="1" parent="1">
          <mxGeometry x="3665" y="363" width="120" height="80" as="geometry" />
        </mxCell>
        <mxCell id="gD2HQ-bASogtjCP1hktm-154" value="yes" style="text;html=1;align=center;verticalAlign=middle;resizable=0;points=[];autosize=1;strokeColor=none;fillColor=none;" vertex="1" parent="1">
          <mxGeometry x="3681" y="174" width="37" height="26" as="geometry" />
        </mxCell>
        <mxCell id="gD2HQ-bASogtjCP1hktm-160" style="edgeStyle=orthogonalEdgeStyle;rounded=0;orthogonalLoop=1;jettySize=auto;html=1;exitX=0.5;exitY=1;exitDx=0;exitDy=0;" edge="1" parent="1" source="gD2HQ-bASogtjCP1hktm-156" target="gD2HQ-bASogtjCP1hktm-159">
          <mxGeometry relative="1" as="geometry" />
        </mxCell>
        <mxCell id="gD2HQ-bASogtjCP1hktm-156" value="autoData.saveToBinary(db);" style="shape=process;whiteSpace=wrap;html=1;backgroundOutline=1;" vertex="1" parent="1">
          <mxGeometry x="3326" y="306" width="205" height="60" as="geometry" />
        </mxCell>
        <mxCell id="gD2HQ-bASogtjCP1hktm-158" value="no" style="text;html=1;align=center;verticalAlign=middle;resizable=0;points=[];autosize=1;strokeColor=none;fillColor=none;" vertex="1" parent="1">
          <mxGeometry x="3414" y="190" width="31" height="26" as="geometry" />
        </mxCell>
        <mxCell id="gD2HQ-bASogtjCP1hktm-162" style="edgeStyle=orthogonalEdgeStyle;rounded=0;orthogonalLoop=1;jettySize=auto;html=1;exitX=1;exitY=0.5;exitDx=0;exitDy=0;entryX=0.5;entryY=0;entryDx=0;entryDy=0;" edge="1" parent="1" source="gD2HQ-bASogtjCP1hktm-159" target="gD2HQ-bASogtjCP1hktm-161">
          <mxGeometry relative="1" as="geometry" />
        </mxCell>
        <mxCell id="gD2HQ-bASogtjCP1hktm-185" value="" style="edgeStyle=orthogonalEdgeStyle;rounded=0;orthogonalLoop=1;jettySize=auto;html=1;entryX=1;entryY=0.5;entryDx=0;entryDy=0;" edge="1" parent="1" source="gD2HQ-bASogtjCP1hktm-159" target="gD2HQ-bASogtjCP1hktm-183">
          <mxGeometry relative="1" as="geometry" />
        </mxCell>
        <mxCell id="gD2HQ-bASogtjCP1hktm-159" value="start_flag?" style="rhombus;whiteSpace=wrap;html=1;" vertex="1" parent="1">
          <mxGeometry x="3343.5" y="395" width="170" height="80" as="geometry" />
        </mxCell>
        <mxCell id="gD2HQ-bASogtjCP1hktm-165" style="edgeStyle=orthogonalEdgeStyle;rounded=0;orthogonalLoop=1;jettySize=auto;html=1;exitX=0.5;exitY=1;exitDx=0;exitDy=0;entryX=0.5;entryY=0;entryDx=0;entryDy=0;" edge="1" parent="1" source="gD2HQ-bASogtjCP1hktm-161" target="gD2HQ-bASogtjCP1hktm-164">
          <mxGeometry relative="1" as="geometry" />
        </mxCell>
        <mxCell id="gD2HQ-bASogtjCP1hktm-161" value="opens main file in read mode&lt;div&gt;init tempAuto&lt;/div&gt;" style="rounded=0;whiteSpace=wrap;html=1;" vertex="1" parent="1">
          <mxGeometry x="3501" y="486" width="120" height="60" as="geometry" />
        </mxCell>
        <mxCell id="gD2HQ-bASogtjCP1hktm-163" value="yes" style="text;html=1;align=center;verticalAlign=middle;resizable=0;points=[];autosize=1;strokeColor=none;fillColor=none;" vertex="1" parent="1">
          <mxGeometry x="3517" y="407" width="37" height="26" as="geometry" />
        </mxCell>
        <mxCell id="gD2HQ-bASogtjCP1hktm-167" style="edgeStyle=orthogonalEdgeStyle;rounded=0;orthogonalLoop=1;jettySize=auto;html=1;exitX=1;exitY=0.5;exitDx=0;exitDy=0;entryX=0.5;entryY=0;entryDx=0;entryDy=0;" edge="1" parent="1" source="gD2HQ-bASogtjCP1hktm-164" target="gD2HQ-bASogtjCP1hktm-166">
          <mxGeometry relative="1" as="geometry" />
        </mxCell>
        <mxCell id="gD2HQ-bASogtjCP1hktm-181" style="edgeStyle=orthogonalEdgeStyle;rounded=0;orthogonalLoop=1;jettySize=auto;html=1;exitX=0;exitY=0.5;exitDx=0;exitDy=0;entryX=1;entryY=0.5;entryDx=0;entryDy=0;" edge="1" parent="1" source="gD2HQ-bASogtjCP1hktm-164" target="gD2HQ-bASogtjCP1hktm-178">
          <mxGeometry relative="1" as="geometry" />
        </mxCell>
        <mxCell id="gD2HQ-bASogtjCP1hktm-164" value="db1 has somothing" style="rhombus;whiteSpace=wrap;html=1;" vertex="1" parent="1">
          <mxGeometry x="3489" y="571.5" width="144" height="80" as="geometry" />
        </mxCell>
        <mxCell id="gD2HQ-bASogtjCP1hktm-174" style="edgeStyle=orthogonalEdgeStyle;rounded=0;orthogonalLoop=1;jettySize=auto;html=1;exitX=0.5;exitY=1;exitDx=0;exitDy=0;entryX=0.5;entryY=0;entryDx=0;entryDy=0;" edge="1" parent="1" source="gD2HQ-bASogtjCP1hktm-166" target="gD2HQ-bASogtjCP1hktm-170">
          <mxGeometry relative="1" as="geometry" />
        </mxCell>
        <mxCell id="gD2HQ-bASogtjCP1hktm-166" value="tempAuto.loadFromBinary(db1)" style="shape=process;whiteSpace=wrap;html=1;backgroundOutline=1;" vertex="1" parent="1">
          <mxGeometry x="3621" y="672" width="225" height="60" as="geometry" />
        </mxCell>
        <mxCell id="gD2HQ-bASogtjCP1hktm-168" value="yes" style="text;html=1;align=center;verticalAlign=middle;resizable=0;points=[];autosize=1;strokeColor=none;fillColor=none;" vertex="1" parent="1">
          <mxGeometry x="3649" y="580" width="37" height="26" as="geometry" />
        </mxCell>
        <mxCell id="gD2HQ-bASogtjCP1hktm-172" style="edgeStyle=orthogonalEdgeStyle;rounded=0;orthogonalLoop=1;jettySize=auto;html=1;exitX=1;exitY=0.5;exitDx=0;exitDy=0;entryX=0.5;entryY=0;entryDx=0;entryDy=0;" edge="1" parent="1" source="gD2HQ-bASogtjCP1hktm-170" target="gD2HQ-bASogtjCP1hktm-171">
          <mxGeometry relative="1" as="geometry" />
        </mxCell>
        <mxCell id="gD2HQ-bASogtjCP1hktm-176" style="edgeStyle=orthogonalEdgeStyle;rounded=0;orthogonalLoop=1;jettySize=auto;html=1;exitX=0;exitY=0.5;exitDx=0;exitDy=0;entryX=0.5;entryY=1;entryDx=0;entryDy=0;" edge="1" parent="1" source="gD2HQ-bASogtjCP1hktm-170" target="gD2HQ-bASogtjCP1hktm-164">
          <mxGeometry relative="1" as="geometry" />
        </mxCell>
        <mxCell id="gD2HQ-bASogtjCP1hktm-170" value="db1 has somothing" style="rhombus;whiteSpace=wrap;html=1;" vertex="1" parent="1">
          <mxGeometry x="3653" y="755" width="161" height="80" as="geometry" />
        </mxCell>
        <mxCell id="gD2HQ-bASogtjCP1hktm-175" style="edgeStyle=orthogonalEdgeStyle;rounded=0;orthogonalLoop=1;jettySize=auto;html=1;entryX=0.5;entryY=1;entryDx=0;entryDy=0;" edge="1" parent="1" source="gD2HQ-bASogtjCP1hktm-171" target="gD2HQ-bASogtjCP1hktm-164">
          <mxGeometry relative="1" as="geometry" />
        </mxCell>
        <mxCell id="gD2HQ-bASogtjCP1hktm-171" value="tempAuto.SaveToBinary(db1)" style="shape=process;whiteSpace=wrap;html=1;backgroundOutline=1;" vertex="1" parent="1">
          <mxGeometry x="3757" y="865" width="225" height="60" as="geometry" />
        </mxCell>
        <mxCell id="gD2HQ-bASogtjCP1hktm-173" value="yes" style="text;html=1;align=center;verticalAlign=middle;resizable=0;points=[];autosize=1;strokeColor=none;fillColor=none;" vertex="1" parent="1">
          <mxGeometry x="3811" y="773" width="37" height="26" as="geometry" />
        </mxCell>
        <mxCell id="gD2HQ-bASogtjCP1hktm-177" value="no" style="text;html=1;align=center;verticalAlign=middle;resizable=0;points=[];autosize=1;strokeColor=none;fillColor=none;" vertex="1" parent="1">
          <mxGeometry x="3604" y="774" width="31" height="26" as="geometry" />
        </mxCell>
        <mxCell id="gD2HQ-bASogtjCP1hktm-180" style="edgeStyle=orthogonalEdgeStyle;rounded=0;orthogonalLoop=1;jettySize=auto;html=1;exitX=0.5;exitY=1;exitDx=0;exitDy=0;entryX=0.5;entryY=0;entryDx=0;entryDy=0;" edge="1" parent="1" source="gD2HQ-bASogtjCP1hktm-178" target="gD2HQ-bASogtjCP1hktm-16">
          <mxGeometry relative="1" as="geometry" />
        </mxCell>
        <mxCell id="gD2HQ-bASogtjCP1hktm-178" value="db.close()&lt;div&gt;db1.close()&lt;/div&gt;" style="rounded=0;whiteSpace=wrap;html=1;" vertex="1" parent="1">
          <mxGeometry x="3302" y="582" width="120" height="60" as="geometry" />
        </mxCell>
        <mxCell id="gD2HQ-bASogtjCP1hktm-195" style="edgeStyle=orthogonalEdgeStyle;rounded=0;orthogonalLoop=1;jettySize=auto;html=1;exitX=0.5;exitY=1;exitDx=0;exitDy=0;" edge="1" parent="1" source="gD2HQ-bASogtjCP1hktm-179" target="gD2HQ-bASogtjCP1hktm-17">
          <mxGeometry relative="1" as="geometry" />
        </mxCell>
        <mxCell id="gD2HQ-bASogtjCP1hktm-179" value="delete db file&lt;div&gt;rename temp file to db name&lt;/div&gt;" style="rounded=0;whiteSpace=wrap;html=1;" vertex="1" parent="1">
          <mxGeometry x="1307" y="2113" width="120" height="60" as="geometry" />
        </mxCell>
        <mxCell id="gD2HQ-bASogtjCP1hktm-182" value="no" style="text;html=1;align=center;verticalAlign=middle;resizable=0;points=[];autosize=1;strokeColor=none;fillColor=none;" vertex="1" parent="1">
          <mxGeometry x="3457" y="582" width="31" height="26" as="geometry" />
        </mxCell>
        <mxCell id="gD2HQ-bASogtjCP1hktm-189" style="edgeStyle=orthogonalEdgeStyle;rounded=0;orthogonalLoop=1;jettySize=auto;html=1;exitX=0;exitY=0.5;exitDx=0;exitDy=0;" edge="1" parent="1" source="gD2HQ-bASogtjCP1hktm-183" target="gD2HQ-bASogtjCP1hktm-187">
          <mxGeometry relative="1" as="geometry" />
        </mxCell>
        <mxCell id="gD2HQ-bASogtjCP1hktm-183" value="db.close()" style="rounded=0;whiteSpace=wrap;html=1;" vertex="1" parent="1">
          <mxGeometry x="3264" y="479" width="120" height="60" as="geometry" />
        </mxCell>
        <mxCell id="gD2HQ-bASogtjCP1hktm-186" value="no" style="text;html=1;align=center;verticalAlign=middle;resizable=0;points=[];autosize=1;strokeColor=none;fillColor=none;" vertex="1" parent="1">
          <mxGeometry x="3399" y="509" width="31" height="26" as="geometry" />
        </mxCell>
        <mxCell id="gD2HQ-bASogtjCP1hktm-187" value="return" style="ellipse;whiteSpace=wrap;html=1;" vertex="1" parent="1">
          <mxGeometry x="3160" y="806" width="120" height="80" as="geometry" />
        </mxCell>
        <mxCell id="gD2HQ-bASogtjCP1hktm-192" value="no" style="text;html=1;align=center;verticalAlign=middle;resizable=0;points=[];autosize=1;strokeColor=none;fillColor=none;" vertex="1" parent="1">
          <mxGeometry x="3331" y="-42" width="31" height="26" as="geometry" />
        </mxCell>
        <mxCell id="gD2HQ-bASogtjCP1hktm-199" style="edgeStyle=orthogonalEdgeStyle;rounded=0;orthogonalLoop=1;jettySize=auto;html=1;exitX=0.5;exitY=1;exitDx=0;exitDy=0;entryX=0.5;entryY=0;entryDx=0;entryDy=0;" edge="1" parent="1" source="gD2HQ-bASogtjCP1hktm-196" target="gD2HQ-bASogtjCP1hktm-197">
          <mxGeometry relative="1" as="geometry" />
        </mxCell>
        <mxCell id="gD2HQ-bASogtjCP1hktm-196" value="DasAuto::DasAuto((string brand = &quot;unknown&quot;, int year = CurrentYear(), int price = 0, ving colors = {&quot;white&quot;})" style="ellipse;whiteSpace=wrap;html=1;" vertex="1" parent="1">
          <mxGeometry x="580" y="1361.82" width="234" height="113" as="geometry" />
        </mxCell>
        <mxCell id="gD2HQ-bASogtjCP1hktm-200" style="edgeStyle=orthogonalEdgeStyle;rounded=0;orthogonalLoop=1;jettySize=auto;html=1;exitX=0.5;exitY=1;exitDx=0;exitDy=0;entryX=0.5;entryY=0;entryDx=0;entryDy=0;" edge="1" parent="1" source="gD2HQ-bASogtjCP1hktm-197" target="gD2HQ-bASogtjCP1hktm-198">
          <mxGeometry relative="1" as="geometry" />
        </mxCell>
        <mxCell id="gD2HQ-bASogtjCP1hktm-197" value="&lt;div&gt;this-&amp;gt;autoData.brand = brand;&lt;/div&gt;&lt;div&gt;&amp;nbsp; &amp;nbsp; &amp;nbsp; &amp;nbsp; this-&amp;gt;autoData.year = year;&lt;/div&gt;&lt;div&gt;&amp;nbsp; &amp;nbsp; &amp;nbsp; &amp;nbsp; this-&amp;gt;autoData.price = price;&lt;/div&gt;&lt;div&gt;&amp;nbsp; &amp;nbsp; &amp;nbsp; &amp;nbsp; this-&amp;gt;autoData.colors = colors;&lt;/div&gt;" style="rounded=0;whiteSpace=wrap;html=1;" vertex="1" parent="1">
          <mxGeometry x="595" y="1511.82" width="204" height="109" as="geometry" />
        </mxCell>
        <mxCell id="gD2HQ-bASogtjCP1hktm-198" value="return;" style="ellipse;whiteSpace=wrap;html=1;" vertex="1" parent="1">
          <mxGeometry x="637" y="1647.82" width="120" height="80" as="geometry" />
        </mxCell>
        <mxCell id="gD2HQ-bASogtjCP1hktm-203" style="edgeStyle=orthogonalEdgeStyle;rounded=0;orthogonalLoop=1;jettySize=auto;html=1;exitX=0.5;exitY=1;exitDx=0;exitDy=0;entryX=0.5;entryY=0;entryDx=0;entryDy=0;" edge="1" parent="1" source="gD2HQ-bASogtjCP1hktm-201" target="gD2HQ-bASogtjCP1hktm-202">
          <mxGeometry relative="1" as="geometry" />
        </mxCell>
        <mxCell id="gD2HQ-bASogtjCP1hktm-201" value="CurrentYear()" style="ellipse;whiteSpace=wrap;html=1;" vertex="1" parent="1">
          <mxGeometry x="621" y="59.5" width="120" height="80" as="geometry" />
        </mxCell>
        <mxCell id="gD2HQ-bASogtjCP1hktm-205" style="edgeStyle=orthogonalEdgeStyle;rounded=0;orthogonalLoop=1;jettySize=auto;html=1;exitX=0.5;exitY=1;exitDx=0;exitDy=0;entryX=0.5;entryY=0;entryDx=0;entryDy=0;" edge="1" parent="1" source="gD2HQ-bASogtjCP1hktm-202" target="gD2HQ-bASogtjCP1hktm-204">
          <mxGeometry relative="1" as="geometry" />
        </mxCell>
        <mxCell id="gD2HQ-bASogtjCP1hktm-202" value="&lt;div&gt;time_t now = time(nullptr);&lt;/div&gt;&lt;div&gt;&amp;nbsp; &amp;nbsp; &amp;nbsp; &amp;nbsp; tm *local = localtime(&amp;amp;now);&lt;/div&gt;" style="rounded=0;whiteSpace=wrap;html=1;" vertex="1" parent="1">
          <mxGeometry x="590" y="174" width="182" height="60" as="geometry" />
        </mxCell>
        <mxCell id="gD2HQ-bASogtjCP1hktm-204" value="return 1900 + local-&amp;gt;tm_year" style="ellipse;whiteSpace=wrap;html=1;" vertex="1" parent="1">
          <mxGeometry x="621" y="256.5" width="120" height="80" as="geometry" />
        </mxCell>
        <mxCell id="gD2HQ-bASogtjCP1hktm-215" style="edgeStyle=orthogonalEdgeStyle;rounded=0;orthogonalLoop=1;jettySize=auto;html=1;exitX=0.5;exitY=1;exitDx=0;exitDy=0;" edge="1" parent="1" source="gD2HQ-bASogtjCP1hktm-206" target="gD2HQ-bASogtjCP1hktm-208">
          <mxGeometry relative="1" as="geometry" />
        </mxCell>
        <mxCell id="gD2HQ-bASogtjCP1hktm-206" value="type_auto::saveToBinary(fstream &amp;amp;db) const" style="ellipse;whiteSpace=wrap;html=1;" vertex="1" parent="1">
          <mxGeometry x="353.01" y="876" width="206" height="80" as="geometry" />
        </mxCell>
        <mxCell id="gD2HQ-bASogtjCP1hktm-207" style="edgeStyle=orthogonalEdgeStyle;rounded=0;orthogonalLoop=1;jettySize=auto;html=1;exitX=1;exitY=0.5;exitDx=0;exitDy=0;" edge="1" parent="1" source="gD2HQ-bASogtjCP1hktm-208" target="gD2HQ-bASogtjCP1hktm-210">
          <mxGeometry relative="1" as="geometry" />
        </mxCell>
        <mxCell id="gD2HQ-bASogtjCP1hktm-217" style="edgeStyle=orthogonalEdgeStyle;rounded=0;orthogonalLoop=1;jettySize=auto;html=1;exitX=0;exitY=0.5;exitDx=0;exitDy=0;entryX=0.5;entryY=0;entryDx=0;entryDy=0;" edge="1" parent="1" source="gD2HQ-bASogtjCP1hktm-208" target="gD2HQ-bASogtjCP1hktm-218">
          <mxGeometry relative="1" as="geometry">
            <mxPoint x="323.51" y="1110" as="targetPoint" />
          </mxGeometry>
        </mxCell>
        <mxCell id="gD2HQ-bASogtjCP1hktm-208" value="!db.is_open?" style="rhombus;whiteSpace=wrap;html=1;" vertex="1" parent="1">
          <mxGeometry x="344.51" y="999" width="221" height="80" as="geometry" />
        </mxCell>
        <mxCell id="gD2HQ-bASogtjCP1hktm-209" style="edgeStyle=orthogonalEdgeStyle;rounded=0;orthogonalLoop=1;jettySize=auto;html=1;" edge="1" parent="1" source="gD2HQ-bASogtjCP1hktm-210" target="gD2HQ-bASogtjCP1hktm-211">
          <mxGeometry relative="1" as="geometry" />
        </mxCell>
        <mxCell id="gD2HQ-bASogtjCP1hktm-210" value="Could not open database file" style="shape=parallelogram;perimeter=parallelogramPerimeter;whiteSpace=wrap;html=1;fixedSize=1;" vertex="1" parent="1">
          <mxGeometry x="565.51" y="1120" width="120" height="60" as="geometry" />
        </mxCell>
        <mxCell id="gD2HQ-bASogtjCP1hktm-211" value="return;" style="ellipse;whiteSpace=wrap;html=1;" vertex="1" parent="1">
          <mxGeometry x="405.01" y="1110" width="120" height="80" as="geometry" />
        </mxCell>
        <mxCell id="gD2HQ-bASogtjCP1hktm-212" value="yes" style="text;html=1;align=center;verticalAlign=middle;resizable=0;points=[];autosize=1;strokeColor=none;fillColor=none;" vertex="1" parent="1">
          <mxGeometry x="575.01" y="1002" width="37" height="26" as="geometry" />
        </mxCell>
        <mxCell id="gD2HQ-bASogtjCP1hktm-213" value="no" style="text;html=1;align=center;verticalAlign=middle;resizable=0;points=[];autosize=1;strokeColor=none;fillColor=none;" vertex="1" parent="1">
          <mxGeometry x="308.01" y="1018" width="31" height="26" as="geometry" />
        </mxCell>
        <mxCell id="gD2HQ-bASogtjCP1hktm-220" style="edgeStyle=orthogonalEdgeStyle;rounded=0;orthogonalLoop=1;jettySize=auto;html=1;exitX=1;exitY=0.5;exitDx=0;exitDy=0;entryX=0;entryY=0.5;entryDx=0;entryDy=0;" edge="1" parent="1" source="gD2HQ-bASogtjCP1hktm-218" target="gD2HQ-bASogtjCP1hktm-211">
          <mxGeometry relative="1" as="geometry" />
        </mxCell>
        <mxCell id="gD2HQ-bASogtjCP1hktm-218" value="write in db all data for current car" style="rounded=0;whiteSpace=wrap;html=1;" vertex="1" parent="1">
          <mxGeometry x="243.01" y="1120" width="120" height="60" as="geometry" />
        </mxCell>
        <mxCell id="gD2HQ-bASogtjCP1hktm-221" style="edgeStyle=orthogonalEdgeStyle;rounded=0;orthogonalLoop=1;jettySize=auto;html=1;exitX=0.5;exitY=1;exitDx=0;exitDy=0;" edge="1" parent="1" source="gD2HQ-bASogtjCP1hktm-222" target="gD2HQ-bASogtjCP1hktm-225">
          <mxGeometry relative="1" as="geometry" />
        </mxCell>
        <mxCell id="gD2HQ-bASogtjCP1hktm-222" value="type_auto::loadFromBinary(fstream &amp;amp;db) const" style="ellipse;whiteSpace=wrap;html=1;" vertex="1" parent="1">
          <mxGeometry x="492.75" y="411" width="206" height="80" as="geometry" />
        </mxCell>
        <mxCell id="gD2HQ-bASogtjCP1hktm-223" style="edgeStyle=orthogonalEdgeStyle;rounded=0;orthogonalLoop=1;jettySize=auto;html=1;exitX=1;exitY=0.5;exitDx=0;exitDy=0;" edge="1" parent="1" source="gD2HQ-bASogtjCP1hktm-225" target="gD2HQ-bASogtjCP1hktm-227">
          <mxGeometry relative="1" as="geometry" />
        </mxCell>
        <mxCell id="gD2HQ-bASogtjCP1hktm-224" style="edgeStyle=orthogonalEdgeStyle;rounded=0;orthogonalLoop=1;jettySize=auto;html=1;exitX=0;exitY=0.5;exitDx=0;exitDy=0;entryX=0.5;entryY=0;entryDx=0;entryDy=0;" edge="1" parent="1" source="gD2HQ-bASogtjCP1hktm-225">
          <mxGeometry relative="1" as="geometry">
            <mxPoint x="464.25" y="632" as="targetPoint" />
          </mxGeometry>
        </mxCell>
        <mxCell id="gD2HQ-bASogtjCP1hktm-225" value="!db.is_open?" style="rhombus;whiteSpace=wrap;html=1;" vertex="1" parent="1">
          <mxGeometry x="485.25" y="521" width="221" height="80" as="geometry" />
        </mxCell>
        <mxCell id="gD2HQ-bASogtjCP1hktm-226" style="edgeStyle=orthogonalEdgeStyle;rounded=0;orthogonalLoop=1;jettySize=auto;html=1;" edge="1" parent="1" source="gD2HQ-bASogtjCP1hktm-227" target="gD2HQ-bASogtjCP1hktm-228">
          <mxGeometry relative="1" as="geometry" />
        </mxCell>
        <mxCell id="gD2HQ-bASogtjCP1hktm-227" value="Could not open database file" style="shape=parallelogram;perimeter=parallelogramPerimeter;whiteSpace=wrap;html=1;fixedSize=1;" vertex="1" parent="1">
          <mxGeometry x="699.75" y="622" width="120" height="60" as="geometry" />
        </mxCell>
        <mxCell id="gD2HQ-bASogtjCP1hktm-228" value="return;" style="ellipse;whiteSpace=wrap;html=1;" vertex="1" parent="1">
          <mxGeometry x="699.75" y="713" width="120" height="80" as="geometry" />
        </mxCell>
        <mxCell id="gD2HQ-bASogtjCP1hktm-229" value="yes" style="text;html=1;align=center;verticalAlign=middle;resizable=0;points=[];autosize=1;strokeColor=none;fillColor=none;" vertex="1" parent="1">
          <mxGeometry x="715.75" y="524" width="37" height="26" as="geometry" />
        </mxCell>
        <mxCell id="gD2HQ-bASogtjCP1hktm-230" value="no" style="text;html=1;align=center;verticalAlign=middle;resizable=0;points=[];autosize=1;strokeColor=none;fillColor=none;" vertex="1" parent="1">
          <mxGeometry x="448.75" y="540" width="31" height="26" as="geometry" />
        </mxCell>
        <mxCell id="gD2HQ-bASogtjCP1hktm-236" style="edgeStyle=orthogonalEdgeStyle;rounded=0;orthogonalLoop=1;jettySize=auto;html=1;exitX=1;exitY=0.5;exitDx=0;exitDy=0;entryX=0;entryY=0.5;entryDx=0;entryDy=0;" edge="1" parent="1" source="gD2HQ-bASogtjCP1hktm-235" target="gD2HQ-bASogtjCP1hktm-228">
          <mxGeometry relative="1" as="geometry" />
        </mxCell>
        <mxCell id="gD2HQ-bASogtjCP1hktm-243" style="edgeStyle=orthogonalEdgeStyle;rounded=0;orthogonalLoop=1;jettySize=auto;html=1;exitX=0;exitY=0.5;exitDx=0;exitDy=0;entryX=0.5;entryY=0;entryDx=0;entryDy=0;" edge="1" parent="1" source="gD2HQ-bASogtjCP1hktm-235" target="gD2HQ-bASogtjCP1hktm-238">
          <mxGeometry relative="1" as="geometry" />
        </mxCell>
        <mxCell id="gD2HQ-bASogtjCP1hktm-235" value="!db.eof() &amp;amp;&amp;amp; there is brandSize in db" style="rhombus;whiteSpace=wrap;html=1;" vertex="1" parent="1">
          <mxGeometry x="338.13" y="633" width="252.25" height="80" as="geometry" />
        </mxCell>
        <mxCell id="gD2HQ-bASogtjCP1hktm-237" value="no" style="text;html=1;align=center;verticalAlign=middle;resizable=0;points=[];autosize=1;strokeColor=none;fillColor=none;" vertex="1" parent="1">
          <mxGeometry x="590.38" y="642" width="31" height="26" as="geometry" />
        </mxCell>
        <mxCell id="gD2HQ-bASogtjCP1hktm-240" style="edgeStyle=orthogonalEdgeStyle;rounded=0;orthogonalLoop=1;jettySize=auto;html=1;entryX=0;entryY=0.5;entryDx=0;entryDy=0;" edge="1" parent="1" source="gD2HQ-bASogtjCP1hktm-238" target="gD2HQ-bASogtjCP1hktm-228">
          <mxGeometry relative="1" as="geometry" />
        </mxCell>
        <mxCell id="gD2HQ-bASogtjCP1hktm-238" value="read one by onr size of data and data and pasting in every field in type_auto" style="rounded=0;whiteSpace=wrap;html=1;" vertex="1" parent="1">
          <mxGeometry x="253" y="723" width="120" height="60" as="geometry" />
        </mxCell>
        <mxCell id="gD2HQ-bASogtjCP1hktm-241" value="yes" style="text;html=1;align=center;verticalAlign=middle;resizable=0;points=[];autosize=1;strokeColor=none;fillColor=none;" vertex="1" parent="1">
          <mxGeometry x="301.13" y="632.5" width="37" height="26" as="geometry" />
        </mxCell>
      </root>
    </mxGraphModel>
  </diagram>
</mxfile>
